<svg width="318" height="173" viewBox="0 0 318 173" fill="none" xmlns="http://www.w3.org/2000/svg">
<g opacity="0.6">
<path d="M32.5 0L32.5 173M142.5 0V173M244.5 0V173M87.5 0L87.5 173M197.5 0V173M299.5 0V173M318 8.5H0M318 110.5H0M318 63.5H0M318 165.5H0" stroke="url(#paint0_radial_51_1702)"/>
</g>
<g filter="url(#filter0_d_51_1702)">
<rect x="24" y="76" width="100" height="32" rx="16" fill="#3461FF"/>
<rect x="24.5" y="76.5" width="99" height="31" rx="15.5" stroke="white"/>
</g>
<path d="M64.7729 96V87.2727H68.0456C68.7161 87.2727 69.2786 87.3977 69.7331 87.6477C70.1905 87.8977 70.5357 88.2415 70.7686 88.679C71.0044 89.1136 71.1223 89.608 71.1223 90.1619C71.1223 90.7216 71.0044 91.2187 70.7686 91.6534C70.5328 92.0881 70.1848 92.4304 69.7246 92.6804C69.2644 92.9276 68.6976 93.0511 68.0243 93.0511H65.8553V91.7514H67.8113C68.2033 91.7514 68.5243 91.6832 68.7743 91.5469C69.0243 91.4105 69.209 91.223 69.3283 90.9844C69.4505 90.7457 69.5115 90.4716 69.5115 90.1619C69.5115 89.8523 69.4505 89.5795 69.3283 89.3438C69.209 89.108 69.0229 88.9247 68.7701 88.794C68.5201 88.6605 68.1976 88.5938 67.8027 88.5938H66.3539V96H64.7729ZM74.1937 96.1321C73.7789 96.1321 73.4054 96.0582 73.073 95.9105C72.7434 95.7599 72.4821 95.5384 72.2889 95.2457C72.0985 94.9531 72.0034 94.5923 72.0034 94.1634C72.0034 93.794 72.0716 93.4886 72.2079 93.2472C72.3443 93.0057 72.5304 92.8125 72.7662 92.6676C73.002 92.5227 73.2676 92.4134 73.563 92.3395C73.8613 92.2628 74.1696 92.2074 74.4877 92.1733C74.8713 92.1335 75.1824 92.098 75.421 92.0668C75.6596 92.0327 75.8329 91.9815 75.9409 91.9134C76.0517 91.8423 76.1071 91.733 76.1071 91.5852V91.5597C76.1071 91.2386 76.0119 90.9901 75.8216 90.8139C75.6312 90.6378 75.3571 90.5497 74.9991 90.5497C74.6213 90.5497 74.3216 90.6321 74.1 90.7969C73.8812 90.9616 73.7335 91.1562 73.6568 91.3807L72.2164 91.1761C72.3301 90.7784 72.5176 90.446 72.7789 90.179C73.0403 89.9091 73.3599 89.7074 73.7377 89.5739C74.1156 89.4375 74.5332 89.3693 74.9906 89.3693C75.3059 89.3693 75.6199 89.4062 75.9324 89.4801C76.2449 89.554 76.5304 89.6761 76.7889 89.8466C77.0474 90.0142 77.2548 90.2429 77.411 90.5327C77.5701 90.8224 77.6497 91.1847 77.6497 91.6193V96H76.1667V95.1009H76.1156C76.0218 95.2827 75.8897 95.4531 75.7193 95.6122C75.5517 95.7685 75.34 95.8949 75.0843 95.9915C74.8315 96.0852 74.5346 96.1321 74.1937 96.1321ZM74.5943 94.9986C74.9039 94.9986 75.1724 94.9375 75.3997 94.8153C75.627 94.6903 75.8017 94.5256 75.9238 94.321C76.0488 94.1165 76.1113 93.8935 76.1113 93.652V92.8807C76.063 92.9205 75.9806 92.9574 75.8642 92.9915C75.7505 93.0256 75.6227 93.0554 75.4806 93.081C75.3386 93.1065 75.198 93.1293 75.0588 93.1491C74.9196 93.169 74.7988 93.1861 74.6966 93.2003C74.4664 93.2315 74.2605 93.2827 74.0787 93.3537C73.8968 93.4247 73.7534 93.5241 73.6483 93.652C73.5431 93.777 73.4906 93.9389 73.4906 94.1378C73.4906 94.4219 73.5943 94.6364 73.8017 94.7812C74.0091 94.9261 74.2733 94.9986 74.5943 94.9986ZM79.9252 98.4545C79.715 98.4545 79.5204 98.4375 79.3414 98.4034C79.1653 98.3722 79.0247 98.3352 78.9196 98.2926L79.2775 97.0909C79.502 97.1563 79.7022 97.1875 79.8784 97.1847C80.0545 97.1818 80.2093 97.1264 80.3429 97.0185C80.4792 96.9134 80.5943 96.7372 80.688 96.4901L80.8201 96.1364L78.4466 89.4545H80.0829L81.5914 94.3977H81.6596L83.1724 89.4545H84.813L82.1923 96.7926C82.0701 97.1392 81.9082 97.4361 81.7065 97.6832C81.5048 97.9332 81.2576 98.1236 80.965 98.2543C80.6752 98.3878 80.3287 98.4545 79.9252 98.4545Z" fill="white"/>
<g filter="url(#filter1_d_51_1702)">
<rect x="194" y="76" width="100" height="32" rx="16" fill="#3461FF"/>
<rect x="194.5" y="76.5" width="99" height="31" rx="15.5" stroke="white"/>
</g>
<path d="M236.237 89.6719C236.197 89.2997 236.029 89.0099 235.734 88.8026C235.441 88.5952 235.06 88.4915 234.592 88.4915C234.262 88.4915 233.979 88.5412 233.744 88.6406C233.508 88.7401 233.327 88.875 233.202 89.0455C233.077 89.2159 233.013 89.4105 233.011 89.6293C233.011 89.8111 233.052 89.9687 233.134 90.1023C233.219 90.2358 233.335 90.3494 233.479 90.4432C233.624 90.5341 233.785 90.6108 233.961 90.6733C234.137 90.7358 234.315 90.7884 234.494 90.831L235.312 91.0355C235.641 91.1122 235.958 91.2159 236.262 91.3466C236.569 91.4773 236.843 91.642 237.085 91.8409C237.329 92.0398 237.522 92.2798 237.664 92.5611C237.806 92.8423 237.877 93.1719 237.877 93.5497C237.877 94.0611 237.746 94.5114 237.485 94.9006C237.224 95.2869 236.846 95.5895 236.352 95.8082C235.86 96.0241 235.265 96.1321 234.566 96.1321C233.887 96.1321 233.298 96.027 232.798 95.8168C232.3 95.6065 231.911 95.2997 231.63 94.8963C231.352 94.4929 231.201 94.0014 231.178 93.4219H232.734C232.756 93.7259 232.85 93.9787 233.015 94.1804C233.18 94.3821 233.394 94.5327 233.658 94.6321C233.925 94.7315 234.224 94.7812 234.553 94.7812C234.897 94.7812 235.198 94.7301 235.457 94.6278C235.718 94.5227 235.923 94.3778 236.07 94.1932C236.218 94.0057 236.293 93.7869 236.296 93.5369C236.293 93.3097 236.227 93.1222 236.096 92.9744C235.965 92.8239 235.782 92.6989 235.546 92.5994C235.313 92.4972 235.04 92.4062 234.728 92.3267L233.735 92.071C233.016 91.8864 232.448 91.6065 232.031 91.2315C231.616 90.8537 231.408 90.3523 231.408 89.7273C231.408 89.2131 231.548 88.7628 231.826 88.3764C232.107 87.9901 232.489 87.6903 232.972 87.4773C233.455 87.2614 234.002 87.1534 234.613 87.1534C235.232 87.1534 235.775 87.2614 236.241 87.4773C236.71 87.6903 237.077 87.9872 237.344 88.3679C237.612 88.7457 237.749 89.1804 237.758 89.6719H236.237ZM239.218 96V89.4545H240.761V96H239.218ZM239.994 88.5256C239.75 88.5256 239.539 88.4446 239.363 88.2827C239.187 88.1179 239.099 87.9205 239.099 87.6903C239.099 87.4574 239.187 87.2599 239.363 87.098C239.539 86.9332 239.75 86.8509 239.994 86.8509C240.241 86.8509 240.451 86.9332 240.625 87.098C240.801 87.2599 240.889 87.4574 240.889 87.6903C240.889 87.9205 240.801 88.1179 240.625 88.2827C240.451 88.4446 240.241 88.5256 239.994 88.5256ZM245.194 98.5909C244.64 98.5909 244.164 98.5156 243.766 98.3651C243.369 98.2173 243.049 98.0185 242.808 97.7685C242.566 97.5185 242.398 97.2415 242.305 96.9375L243.694 96.6009C243.756 96.7287 243.847 96.8551 243.967 96.9801C244.086 97.108 244.246 97.2131 244.448 97.2955C244.653 97.3807 244.91 97.4233 245.219 97.4233C245.657 97.4233 246.019 97.3168 246.306 97.1037C246.593 96.8935 246.737 96.5469 246.737 96.0639V94.8239H246.66C246.58 94.983 246.464 95.1463 246.31 95.3139C246.16 95.4815 245.96 95.6222 245.71 95.7358C245.462 95.8494 245.151 95.9062 244.776 95.9062C244.273 95.9062 243.817 95.7884 243.408 95.5526C243.002 95.3139 242.678 94.9588 242.437 94.4872C242.198 94.0128 242.079 93.419 242.079 92.706C242.079 91.9872 242.198 91.3807 242.437 90.8864C242.678 90.3892 243.004 90.0128 243.413 89.7571C243.822 89.4986 244.278 89.3693 244.781 89.3693C245.164 89.3693 245.479 89.4347 245.727 89.5653C245.977 89.6932 246.175 89.848 246.323 90.0298C246.471 90.2088 246.583 90.3778 246.66 90.5369H246.745V89.4545H248.266V96.1065C248.266 96.6662 248.133 97.1293 247.866 97.4957C247.599 97.8622 247.234 98.1364 246.771 98.3182C246.308 98.5 245.782 98.5909 245.194 98.5909ZM245.207 94.696C245.533 94.696 245.812 94.6165 246.042 94.4574C246.272 94.2983 246.447 94.0696 246.566 93.7713C246.685 93.473 246.745 93.1151 246.745 92.6974C246.745 92.2855 246.685 91.9247 246.566 91.6151C246.45 91.3054 246.276 91.0653 246.046 90.8949C245.819 90.7216 245.539 90.6349 245.207 90.6349C244.863 90.6349 244.576 90.7244 244.346 90.9034C244.116 91.0824 243.942 91.3281 243.826 91.6406C243.71 91.9503 243.651 92.3026 243.651 92.6974C243.651 93.098 243.71 93.4489 243.826 93.75C243.945 94.0483 244.12 94.2812 244.35 94.4489C244.583 94.6136 244.869 94.696 245.207 94.696ZM251.39 92.1648V96H249.847V89.4545H251.322V90.5668H251.398C251.549 90.2003 251.789 89.9091 252.119 89.6932C252.451 89.4773 252.862 89.3693 253.35 89.3693C253.802 89.3693 254.195 89.4659 254.531 89.6591C254.869 89.8523 255.13 90.1321 255.315 90.4986C255.502 90.8651 255.594 91.3097 255.592 91.8324V96H254.049V92.071C254.049 91.6335 253.935 91.2912 253.708 91.044C253.484 90.7969 253.173 90.6733 252.775 90.6733C252.505 90.6733 252.265 90.733 252.055 90.8523C251.847 90.9687 251.684 91.1378 251.565 91.3594C251.448 91.581 251.39 91.8494 251.39 92.1648Z" fill="white"/>
<line x1="124" y1="91.5" x2="194" y2="91.5" stroke="#3461FF"/>
<defs>
<filter id="filter0_d_51_1702" x="23" y="75" width="102" height="34" filterUnits="userSpaceOnUse" color-interpolation-filters="sRGB">
<feFlood flood-opacity="0" result="BackgroundImageFix"/>
<feColorMatrix in="SourceAlpha" type="matrix" values="0 0 0 0 0 0 0 0 0 0 0 0 0 0 0 0 0 0 127 0" result="hardAlpha"/>
<feMorphology radius="1" operator="dilate" in="SourceAlpha" result="effect1_dropShadow_51_1702"/>
<feOffset/>
<feComposite in2="hardAlpha" operator="out"/>
<feColorMatrix type="matrix" values="0 0 0 0 0.204167 0 0 0 0 0.37925 0 0 0 0 1 0 0 0 1 0"/>
<feBlend mode="normal" in2="BackgroundImageFix" result="effect1_dropShadow_51_1702"/>
<feBlend mode="normal" in="SourceGraphic" in2="effect1_dropShadow_51_1702" result="shape"/>
</filter>
<filter id="filter1_d_51_1702" x="193" y="75" width="102" height="34" filterUnits="userSpaceOnUse" color-interpolation-filters="sRGB">
<feFlood flood-opacity="0" result="BackgroundImageFix"/>
<feColorMatrix in="SourceAlpha" type="matrix" values="0 0 0 0 0 0 0 0 0 0 0 0 0 0 0 0 0 0 127 0" result="hardAlpha"/>
<feMorphology radius="1" operator="dilate" in="SourceAlpha" result="effect1_dropShadow_51_1702"/>
<feOffset/>
<feComposite in2="hardAlpha" operator="out"/>
<feColorMatrix type="matrix" values="0 0 0 0 0.204167 0 0 0 0 0.37925 0 0 0 0 1 0 0 0 1 0"/>
<feBlend mode="normal" in2="BackgroundImageFix" result="effect1_dropShadow_51_1702"/>
<feBlend mode="normal" in="SourceGraphic" in2="effect1_dropShadow_51_1702" result="shape"/>
</filter>
<radialGradient id="paint0_radial_51_1702" cx="0" cy="0" r="1" gradientUnits="userSpaceOnUse" gradientTransform="translate(159 89.25) rotate(-90) scale(89.25 164.055)">
<stop stop-color="#EBEBEB"/>
<stop offset="0.507105" stop-color="#EBEBEB"/>
<stop offset="0.98" stop-color="#EBEBEB" stop-opacity="0"/>
</radialGradient>
</defs>
</svg>
