<svg width="607" height="213" viewBox="0 0 607 213" fill="none" xmlns="http://www.w3.org/2000/svg">
<g filter="url(#filter0_d_54_1726)">
<g clip-path="url(#clip0_54_1726)">
<rect x="222" y="32" width="162.319" height="160" rx="11.2074" fill="white"/>
<path d="M275.052 60.3865V56.3999H273.708V55.8415H277.078V56.3999H275.74V60.3865H275.052ZM277.566 60.3865V55.7117H278.254V57.6855C278.363 57.4994 278.512 57.3544 278.702 57.2505C278.897 57.1423 279.111 57.0882 279.345 57.0882C279.73 57.0882 280.033 57.2094 280.254 57.4517C280.475 57.6941 280.585 58.0556 280.585 58.536V60.3865H279.903V58.6075C279.903 57.9842 279.655 57.6725 279.157 57.6725C278.897 57.6725 278.681 57.7634 278.508 57.9452C278.339 58.127 278.254 58.3867 278.254 58.7243V60.3865H277.566ZM281.655 56.5557C281.526 56.5557 281.417 56.5168 281.331 56.4389C281.249 56.3566 281.207 56.2549 281.207 56.1337C281.207 56.0125 281.249 55.913 281.331 55.8351C281.417 55.7528 281.526 55.7117 281.655 55.7117C281.785 55.7117 281.891 55.7528 281.974 55.8351C282.06 55.913 282.103 56.0125 282.103 56.1337C282.103 56.2549 282.06 56.3566 281.974 56.4389C281.891 56.5168 281.785 56.5557 281.655 56.5557ZM281.311 60.3865V57.1661H282V60.3865H281.311ZM284.064 60.4644C283.657 60.4644 283.321 60.3648 283.057 60.1657C282.793 59.9666 282.642 59.7026 282.603 59.3736H283.298C283.332 59.5208 283.415 59.6485 283.544 59.7567C283.674 59.8606 283.845 59.9125 284.057 59.9125C284.265 59.9125 284.417 59.8692 284.512 59.7826C284.607 59.6961 284.655 59.5965 284.655 59.484C284.655 59.3195 284.588 59.2091 284.453 59.1529C284.324 59.0923 284.142 59.0381 283.908 58.9905C283.726 58.9516 283.544 58.8996 283.363 58.8347C283.185 58.7698 283.036 58.6789 282.915 58.562C282.798 58.4408 282.739 58.2785 282.739 58.0751C282.739 57.7937 282.848 57.56 283.064 57.3738C283.28 57.1834 283.583 57.0882 283.973 57.0882C284.332 57.0882 284.622 57.1747 284.843 57.3479C285.068 57.521 285.2 57.7656 285.239 58.0815H284.577C284.555 57.943 284.49 57.8348 284.382 57.7569C284.278 57.679 284.137 57.64 283.96 57.64C283.787 57.64 283.653 57.6768 283.557 57.7504C283.462 57.8197 283.415 57.9106 283.415 58.0231C283.415 58.1357 283.479 58.2244 283.609 58.2893C283.744 58.3542 283.919 58.4127 284.135 58.4646C284.352 58.5122 284.551 58.5685 284.733 58.6334C284.919 58.694 285.068 58.7849 285.181 58.9061C285.293 59.0273 285.349 59.2048 285.349 59.4385C285.354 59.7329 285.239 59.9774 285.005 60.1722C284.776 60.367 284.462 60.4644 284.064 60.4644ZM287.477 60.3865V57.1661H288.087L288.146 57.6206C288.25 57.4561 288.386 57.3262 288.555 57.231C288.728 57.1358 288.927 57.0882 289.152 57.0882C289.663 57.0882 290.018 57.2894 290.217 57.692C290.334 57.5059 290.49 57.3587 290.684 57.2505C290.883 57.1423 291.098 57.0882 291.327 57.0882C291.73 57.0882 292.046 57.2094 292.275 57.4517C292.504 57.6941 292.619 58.0556 292.619 58.536V60.3865H291.931V58.6075C291.931 57.9842 291.693 57.6725 291.217 57.6725C290.974 57.6725 290.775 57.7634 290.619 57.9452C290.468 58.127 290.392 58.3867 290.392 58.7243V60.3865H289.704V58.6075C289.704 57.9842 289.464 57.6725 288.983 57.6725C288.745 57.6725 288.548 57.7634 288.392 57.9452C288.241 58.127 288.165 58.3867 288.165 58.7243V60.3865H287.477ZM294.801 60.4644C294.493 60.4644 294.216 60.3951 293.97 60.2566C293.727 60.1138 293.535 59.9168 293.392 59.6658C293.249 59.4104 293.178 59.1139 293.178 58.7763C293.178 58.4386 293.249 58.1443 293.392 57.8933C293.539 57.6379 293.736 57.4409 293.983 57.3024C294.229 57.1596 294.504 57.0882 294.807 57.0882C295.115 57.0882 295.389 57.1596 295.632 57.3024C295.879 57.4409 296.073 57.6379 296.216 57.8933C296.363 58.1443 296.437 58.4386 296.437 58.7763C296.437 59.1139 296.363 59.4104 296.216 59.6658C296.073 59.9168 295.879 60.1138 295.632 60.2566C295.385 60.3951 295.108 60.4644 294.801 60.4644ZM294.801 59.8735C294.965 59.8735 295.117 59.8324 295.255 59.7502C295.398 59.6679 295.513 59.5467 295.599 59.3866C295.686 59.2221 295.729 59.0187 295.729 58.7763C295.729 58.5339 295.686 58.3326 295.599 58.1724C295.517 58.008 295.405 57.8846 295.262 57.8024C295.123 57.7201 294.972 57.679 294.807 57.679C294.643 57.679 294.489 57.7201 294.346 57.8024C294.208 57.8846 294.095 58.008 294.009 58.1724C293.922 58.3326 293.879 58.5339 293.879 58.7763C293.879 59.0187 293.922 59.2221 294.009 59.3866C294.095 59.5467 294.208 59.6679 294.346 59.7502C294.485 59.8324 294.636 59.8735 294.801 59.8735ZM297.051 60.3865V57.1661H297.662L297.714 57.7309C297.813 57.5318 297.958 57.376 298.149 57.2635C298.343 57.1466 298.566 57.0882 298.817 57.0882C299.207 57.0882 299.512 57.2094 299.733 57.4517C299.958 57.6941 300.071 58.0556 300.071 58.536V60.3865H299.389V58.6075C299.389 57.9842 299.133 57.6725 298.623 57.6725C298.367 57.6725 298.155 57.7634 297.986 57.9452C297.822 58.127 297.74 58.3867 297.74 58.7243V60.3865H297.051ZM302.102 60.3865C301.786 60.3865 301.535 60.3107 301.349 60.1592C301.162 60.0034 301.069 59.7285 301.069 59.3346V57.7439H300.518V57.1661H301.069L301.154 56.348H301.758V57.1661H302.667V57.7439H301.758V59.3346C301.758 59.5121 301.794 59.6355 301.868 59.7047C301.946 59.7697 302.078 59.8021 302.264 59.8021H302.634V60.3865H302.102ZM303.246 60.3865V55.7117H303.935V57.6855C304.043 57.4994 304.192 57.3544 304.383 57.2505C304.577 57.1423 304.792 57.0882 305.025 57.0882C305.411 57.0882 305.714 57.2094 305.934 57.4517C306.155 57.6941 306.266 58.0556 306.266 58.536V60.3865H305.584V58.6075C305.584 57.9842 305.335 57.6725 304.837 57.6725C304.577 57.6725 304.361 57.7634 304.188 57.9452C304.019 58.127 303.935 58.3867 303.935 58.7243V60.3865H303.246ZM309.959 60.4644C309.643 60.4644 309.361 60.3951 309.115 60.2566C308.872 60.1138 308.682 59.9168 308.543 59.6658C308.405 59.4147 308.335 59.1226 308.335 58.7893C308.335 58.4516 308.403 58.1551 308.537 57.8997C308.675 57.6444 308.866 57.4453 309.108 57.3024C309.355 57.1596 309.64 57.0882 309.965 57.0882C310.281 57.0882 310.556 57.1596 310.79 57.3024C311.023 57.4409 311.205 57.6271 311.335 57.8608C311.465 58.0945 311.53 58.3521 311.53 58.6334C311.53 58.6767 311.528 58.7243 311.523 58.7763C311.523 58.8239 311.521 58.878 311.517 58.9386H309.011C309.032 59.2502 309.134 59.4883 309.316 59.6528C309.502 59.8129 309.716 59.893 309.959 59.893C310.153 59.893 310.316 59.8497 310.446 59.7632C310.58 59.6723 310.679 59.5511 310.744 59.3996H311.432C311.346 59.7026 311.173 59.9558 310.913 60.1592C310.658 60.3627 310.34 60.4644 309.959 60.4644ZM309.959 57.653C309.729 57.653 309.526 57.7223 309.348 57.8608C309.171 57.995 309.063 58.1984 309.024 58.4711H310.842C310.829 58.2201 310.74 58.0209 310.575 57.8738C310.411 57.7266 310.205 57.653 309.959 57.653ZM313.205 60.4644C312.932 60.4644 312.707 60.4189 312.53 60.328C312.352 60.2371 312.22 60.1181 312.134 59.9709C312.047 59.8194 312.004 59.655 312.004 59.4775C312.004 59.1658 312.125 58.9191 312.367 58.7373C312.61 58.5555 312.956 58.4646 313.406 58.4646H314.25V58.4062C314.25 58.1551 314.181 57.9668 314.042 57.8413C313.908 57.7158 313.733 57.653 313.517 57.653C313.326 57.653 313.159 57.7006 313.017 57.7959C312.878 57.8868 312.794 58.0231 312.763 58.2049H312.075C312.097 57.9712 312.175 57.7721 312.309 57.6076C312.447 57.4388 312.621 57.3111 312.828 57.2245C313.04 57.1336 313.272 57.0882 313.523 57.0882C313.973 57.0882 314.322 57.2072 314.568 57.4453C314.815 57.679 314.938 57.9993 314.938 58.4062V60.3865H314.341L314.283 59.8346C314.192 60.0121 314.06 60.1614 313.887 60.2826C313.713 60.4038 313.486 60.4644 313.205 60.4644ZM313.341 59.906C313.527 59.906 313.683 59.8627 313.809 59.7762C313.939 59.6853 314.038 59.5662 314.107 59.4191C314.181 59.2719 314.226 59.1096 314.244 58.9321H313.478C313.205 58.9321 313.01 58.9797 312.893 59.0749C312.781 59.1702 312.724 59.2892 312.724 59.432C312.724 59.5792 312.779 59.6961 312.887 59.7826C312.999 59.8649 313.151 59.906 313.341 59.906ZM315.611 60.3865V57.1661H316.228L316.286 57.7764C316.399 57.5643 316.555 57.3976 316.754 57.2764C316.957 57.1509 317.202 57.0882 317.487 57.0882V57.8089H317.299C317.109 57.8089 316.938 57.8413 316.786 57.9062C316.639 57.9668 316.52 58.0729 316.429 58.2244C316.343 58.3716 316.299 58.5772 316.299 58.8412V60.3865H315.611ZM317.948 60.3865V57.1661H318.558L318.61 57.7309C318.71 57.5318 318.855 57.376 319.045 57.2635C319.24 57.1466 319.463 57.0882 319.714 57.0882C320.103 57.0882 320.408 57.2094 320.629 57.4517C320.854 57.6941 320.967 58.0556 320.967 58.536V60.3865H320.285V58.6075C320.285 57.9842 320.03 57.6725 319.519 57.6725C319.264 57.6725 319.051 57.7634 318.883 57.9452C318.718 58.127 318.636 58.3867 318.636 58.7243V60.3865H317.948ZM322.037 56.5557C321.907 56.5557 321.799 56.5168 321.712 56.4389C321.63 56.3566 321.589 56.2549 321.589 56.1337C321.589 56.0125 321.63 55.913 321.712 55.8351C321.799 55.7528 321.907 55.7117 322.037 55.7117C322.167 55.7117 322.273 55.7528 322.355 55.8351C322.442 55.913 322.485 56.0125 322.485 56.1337C322.485 56.2549 322.442 56.3566 322.355 56.4389C322.273 56.5168 322.167 56.5557 322.037 56.5557ZM321.693 60.3865V57.1661H322.381V60.3865H321.693ZM323.16 60.3865V57.1661H323.77L323.822 57.7309C323.922 57.5318 324.067 57.376 324.257 57.2635C324.452 57.1466 324.675 57.0882 324.926 57.0882C325.315 57.0882 325.621 57.2094 325.841 57.4517C326.066 57.6941 326.179 58.0556 326.179 58.536V60.3865H325.497V58.6075C325.497 57.9842 325.242 57.6725 324.731 57.6725C324.476 57.6725 324.264 57.7634 324.095 57.9452C323.93 58.127 323.848 58.3867 323.848 58.7243V60.3865H323.16ZM328.178 59.3996C328.009 59.3996 327.853 59.3801 327.71 59.3411L327.431 59.6138C327.479 59.6441 327.537 59.6701 327.606 59.6917C327.676 59.7134 327.773 59.7329 327.899 59.7502C328.024 59.7675 328.195 59.7848 328.412 59.8021C328.84 59.8411 329.15 59.945 329.34 60.1138C329.53 60.2783 329.626 60.499 329.626 60.776C329.626 60.9665 329.574 61.1461 329.47 61.3149C329.37 61.4881 329.212 61.6266 328.996 61.7305C328.784 61.8387 328.511 61.8928 328.178 61.8928C327.728 61.8928 327.362 61.8062 327.081 61.6331C326.803 61.4643 326.665 61.2067 326.665 60.8604C326.665 60.7263 326.7 60.5921 326.769 60.4579C326.842 60.328 326.957 60.2047 327.113 60.0878C327.022 60.0489 326.942 60.0077 326.873 59.9644C326.808 59.9168 326.749 59.8692 326.697 59.8216V59.6658L327.256 59.0944C327.005 58.878 326.879 58.5945 326.879 58.2439C326.879 58.0318 326.929 57.8392 327.029 57.666C327.132 57.4885 327.282 57.3479 327.477 57.244C327.671 57.1401 327.905 57.0882 328.178 57.0882C328.36 57.0882 328.528 57.1141 328.684 57.1661H329.885V57.6206L329.314 57.653C329.418 57.8305 329.47 58.0274 329.47 58.2439C329.47 58.4603 329.418 58.6551 329.314 58.8282C329.214 59.0014 329.067 59.1399 328.873 59.2437C328.682 59.3476 328.45 59.3996 328.178 59.3996ZM328.178 58.8607C328.377 58.8607 328.537 58.8087 328.658 58.7049C328.784 58.5966 328.847 58.4451 328.847 58.2504C328.847 58.0512 328.784 57.8997 328.658 57.7959C328.537 57.692 328.377 57.64 328.178 57.64C327.974 57.64 327.81 57.692 327.684 57.7959C327.563 57.8997 327.503 58.0512 327.503 58.2504C327.503 58.4451 327.563 58.5966 327.684 58.7049C327.81 58.8087 327.974 58.8607 328.178 58.8607ZM327.314 60.7955C327.314 60.9816 327.396 61.1202 327.561 61.2111C327.725 61.3063 327.931 61.3539 328.178 61.3539C328.416 61.3539 328.608 61.302 328.756 61.1981C328.903 61.0985 328.976 60.9643 328.976 60.7955C328.976 60.67 328.927 60.5618 328.827 60.4709C328.728 60.3843 328.539 60.3302 328.262 60.3086C328.054 60.2956 327.87 60.2761 327.71 60.2501C327.559 60.3324 327.455 60.4211 327.399 60.5163C327.342 60.6116 327.314 60.7046 327.314 60.7955ZM331.655 60.4644C331.248 60.4644 330.913 60.3648 330.649 60.1657C330.385 59.9666 330.233 59.7026 330.194 59.3736H330.889C330.923 59.5208 331.006 59.6485 331.136 59.7567C331.265 59.8606 331.436 59.9125 331.648 59.9125C331.856 59.9125 332.008 59.8692 332.103 59.7826C332.198 59.6961 332.246 59.5965 332.246 59.484C332.246 59.3195 332.179 59.2091 332.045 59.1529C331.915 59.0923 331.733 59.0381 331.499 58.9905C331.317 58.9516 331.136 58.8996 330.954 58.8347C330.776 58.7698 330.627 58.6789 330.506 58.562C330.389 58.4408 330.33 58.2785 330.33 58.0751C330.33 57.7937 330.439 57.56 330.655 57.3738C330.872 57.1834 331.174 57.0882 331.564 57.0882C331.923 57.0882 332.213 57.1747 332.434 57.3479C332.659 57.521 332.791 57.7656 332.83 58.0815H332.168C332.146 57.943 332.081 57.8348 331.973 57.7569C331.869 57.679 331.729 57.64 331.551 57.64C331.378 57.64 331.244 57.6768 331.149 57.7504C331.053 57.8197 331.006 57.9106 331.006 58.0231C331.006 58.1357 331.071 58.2244 331.2 58.2893C331.335 58.3542 331.51 58.4127 331.726 58.4646C331.943 58.5122 332.142 58.5685 332.324 58.6334C332.51 58.694 332.659 58.7849 332.772 58.9061C332.884 59.0273 332.941 59.2048 332.941 59.4385C332.945 59.7329 332.83 59.9774 332.596 60.1722C332.367 60.367 332.053 60.4644 331.655 60.4644Z" fill="#A3AED0"/>
<path d="M274.096 85.7328V84.0069C272.647 83.8425 271.466 83.3344 270.555 82.4827C269.643 81.6309 269.172 80.4877 269.142 79.0532H272.168C272.198 79.6509 272.378 80.1739 272.706 80.6222C273.05 81.0705 273.513 81.3769 274.096 81.5412V76.8117C273.962 76.7669 273.82 76.7221 273.67 76.6772C273.536 76.6324 273.394 76.5876 273.244 76.5428C272.034 76.1243 271.107 75.5864 270.465 74.9289C269.837 74.2714 269.524 73.3972 269.524 72.3064C269.509 71.0213 269.927 69.9902 270.779 69.2131C271.63 68.4211 272.736 67.9654 274.096 67.8458V66.0302H275.598V67.8682C276.943 68.0027 278.026 68.4734 278.848 69.2804C279.685 70.0724 280.126 71.096 280.171 72.3512H277.1C277.085 71.9178 276.943 71.5218 276.674 71.1632C276.42 70.7896 276.061 70.5281 275.598 70.3787V74.5478C275.717 74.5927 275.837 74.6375 275.957 74.6823C276.076 74.7122 276.196 74.7496 276.315 74.7944C277.092 75.0634 277.802 75.3772 278.445 75.7358C279.087 76.0945 279.603 76.5726 279.991 77.1704C280.38 77.7531 280.574 78.5078 280.574 79.4343C280.574 80.2113 280.38 80.936 279.991 81.6085C279.618 82.2809 279.057 82.8413 278.31 83.2896C277.578 83.7229 276.674 83.9695 275.598 84.0293V85.7328H274.096ZM272.527 72.1046C272.527 72.5828 272.669 72.9713 272.953 73.2702C273.237 73.5541 273.618 73.8007 274.096 74.0099V70.289C273.633 70.3787 273.252 70.5804 272.953 70.8942C272.669 71.208 272.527 71.6115 272.527 72.1046ZM277.526 79.636C277.526 79.0383 277.346 78.5676 276.988 78.2239C276.629 77.8802 276.166 77.5888 275.598 77.3497V81.6085C276.196 81.5188 276.666 81.3021 277.01 80.9585C277.354 80.6148 277.526 80.1739 277.526 79.636ZM288.524 84.0517C287.344 84.0517 286.35 83.835 285.543 83.4017C284.736 82.9683 284.086 82.3855 283.593 81.6533C283.1 80.9211 282.741 80.1067 282.517 79.2101C282.308 78.3135 282.203 77.3945 282.203 76.4531C282.203 74.7047 282.45 73.188 282.943 71.9029C283.436 70.6028 284.146 69.6017 285.072 68.8993C285.999 68.1821 287.119 67.8234 288.434 67.8234C289.51 67.8234 290.422 68.0401 291.169 68.4734C291.931 68.8919 292.521 69.4447 292.94 70.1321C293.358 70.8195 293.605 71.5592 293.679 72.3512H291.012C290.878 71.6638 290.586 71.1333 290.138 70.7597C289.69 70.3862 289.114 70.1994 288.412 70.1994C287.411 70.1994 286.604 70.6626 285.991 71.5891C285.378 72.5006 285.05 73.8978 285.005 75.7807C285.364 75.168 285.902 74.6599 286.619 74.2564C287.336 73.853 288.136 73.6512 289.017 73.6512C289.884 73.6512 290.698 73.8605 291.46 74.2789C292.222 74.6973 292.835 75.2875 293.298 76.0496C293.777 76.8117 294.016 77.7083 294.016 78.7394C294.016 79.6808 293.784 80.555 293.321 81.3619C292.872 82.1689 292.23 82.8189 291.393 83.312C290.571 83.8051 289.615 84.0517 288.524 84.0517ZM288.367 81.5861C289.204 81.5861 289.891 81.332 290.429 80.824C290.982 80.301 291.259 79.6435 291.259 78.8515C291.259 78.0147 290.982 77.3422 290.429 76.8341C289.876 76.3261 289.174 76.072 288.322 76.072C287.769 76.072 287.269 76.1991 286.821 76.4531C286.387 76.6922 286.043 77.0209 285.789 77.4393C285.535 77.8428 285.408 78.2986 285.408 78.8066C285.408 79.6136 285.685 80.2785 286.238 80.8016C286.806 81.3246 287.515 81.5861 288.367 81.5861ZM301.923 84.0517C300.847 84.0517 299.876 83.8649 299.009 83.4913C298.143 83.1028 297.448 82.5574 296.925 81.855C296.417 81.1527 296.163 80.3383 296.163 79.4118C296.163 78.4555 296.409 77.6187 296.902 76.9014C297.41 76.1841 298.075 75.6686 298.897 75.3548C298.18 75.041 297.612 74.5927 297.194 74.0099C296.775 73.4122 296.566 72.7472 296.566 72.015C296.566 71.2678 296.768 70.5804 297.171 69.9528C297.575 69.3103 298.173 68.7947 298.965 68.4062C299.772 68.0177 300.758 67.8234 301.923 67.8234C303.089 67.8234 304.068 68.0177 304.86 68.4062C305.652 68.7947 306.249 69.3103 306.653 69.9528C307.056 70.5804 307.258 71.2678 307.258 72.015C307.258 72.7322 307.041 73.3972 306.608 74.0099C306.19 74.6076 305.629 75.0559 304.927 75.3548C305.764 75.6686 306.429 76.1841 306.922 76.9014C307.415 77.6187 307.661 78.4555 307.661 79.4118C307.661 80.3383 307.407 81.1527 306.899 81.855C306.391 82.5574 305.696 83.1028 304.815 83.4913C303.948 83.8649 302.984 84.0517 301.923 84.0517ZM301.923 74.503C302.7 74.503 303.313 74.3013 303.761 73.8978C304.21 73.4943 304.434 72.9788 304.434 72.3512C304.434 71.6638 304.21 71.1259 303.761 70.7373C303.328 70.3488 302.715 70.1545 301.923 70.1545C301.116 70.1545 300.496 70.3488 300.063 70.7373C299.63 71.1259 299.413 71.6638 299.413 72.3512C299.413 72.9938 299.63 73.5168 300.063 73.9202C300.511 74.3087 301.131 74.503 301.923 74.503ZM301.923 81.6533C302.88 81.6533 303.604 81.4217 304.098 80.9585C304.591 80.4803 304.837 79.8825 304.837 79.1653C304.837 78.3733 304.576 77.7531 304.053 77.3049C303.545 76.8566 302.835 76.6324 301.923 76.6324C301.012 76.6324 300.287 76.8566 299.749 77.3049C299.226 77.7531 298.965 78.3733 298.965 79.1653C298.965 79.8825 299.211 80.4803 299.704 80.9585C300.212 81.4217 300.952 81.6533 301.923 81.6533ZM309.457 83.7827V81.6981C310.414 80.9062 311.34 80.1216 312.237 79.3446C313.148 78.5676 313.955 77.798 314.658 77.0359C315.375 76.2738 315.943 75.5341 316.361 74.8168C316.794 74.0846 317.011 73.3748 317.011 72.6874C317.011 72.0449 316.832 71.477 316.473 70.9839C316.129 70.4908 315.554 70.2442 314.747 70.2442C313.925 70.2442 313.305 70.5132 312.887 71.0511C312.468 71.5891 312.259 72.2391 312.259 73.0012H309.48C309.51 71.8506 309.764 70.8942 310.242 70.1321C310.72 69.3551 311.355 68.7798 312.147 68.4062C312.939 68.0177 313.828 67.8234 314.814 67.8234C316.413 67.8234 317.654 68.2642 318.535 69.1459C319.432 70.0126 319.88 71.1408 319.88 72.5305C319.88 73.3972 319.678 74.2415 319.275 75.0634C318.886 75.8853 318.371 76.6772 317.728 77.4393C317.086 78.2014 316.391 78.9187 315.644 79.5912C314.897 80.2487 314.172 80.8613 313.47 81.4292H320.261V83.7827H309.457ZM323.361 83.9396C322.838 83.9396 322.405 83.7752 322.061 83.4465C321.732 83.1177 321.568 82.7218 321.568 82.2585C321.568 81.7803 321.732 81.3769 322.061 81.0481C322.405 80.7194 322.838 80.555 323.361 80.555C323.884 80.555 324.31 80.7194 324.639 81.0481C324.982 81.3769 325.154 81.7803 325.154 82.2585C325.154 82.7218 324.982 83.1177 324.639 83.4465C324.31 83.7752 323.884 83.9396 323.361 83.9396ZM332.758 84.0517C331.607 84.0517 330.614 83.85 329.777 83.4465C328.955 83.043 328.305 82.4901 327.827 81.7878C327.363 81.0705 327.094 80.2636 327.02 79.367H329.822C329.956 80.0096 330.285 80.5475 330.808 80.9809C331.331 81.3993 331.981 81.6085 332.758 81.6085C333.595 81.6085 334.275 81.3021 334.798 80.6895C335.336 80.0768 335.605 79.3147 335.605 78.4032C335.605 77.4618 335.336 76.7146 334.798 76.1617C334.275 75.6088 333.61 75.3324 332.803 75.3324C332.13 75.3324 331.548 75.4967 331.054 75.8255C330.561 76.1542 330.21 76.5652 330.001 77.0583H327.244L328.589 68.0924H337.286V70.6028H330.741L330.023 74.234C330.352 73.8754 330.8 73.584 331.368 73.3599C331.936 73.1208 332.571 73.0012 333.273 73.0012C334.394 73.0012 335.328 73.2553 336.075 73.7633C336.822 74.2564 337.39 74.9139 337.779 75.7358C338.167 76.5428 338.362 77.4244 338.362 78.3808C338.362 79.4716 338.123 80.4429 337.644 81.2947C337.181 82.1464 336.524 82.8189 335.672 83.312C334.835 83.8051 333.864 84.0517 332.758 84.0517Z" fill="#1B2559"/>
<rect x="289.449" y="94.1449" width="27.4203" height="11.1304" rx="5.56522" fill="#05CD99" fill-opacity="0.1"/>
<path d="M293.896 100.397V99.8013H294.943V98.8385H295.549V99.8013H296.59V100.397H295.549V101.36H294.943V100.397H293.896ZM297.078 101.71V101.193C297.315 100.996 297.545 100.801 297.768 100.608C297.994 100.415 298.195 100.224 298.369 100.035C298.547 99.8458 298.688 99.6621 298.792 99.4841C298.9 99.3023 298.953 99.126 298.953 98.9554C298.953 98.7958 298.909 98.6548 298.82 98.5324C298.734 98.41 298.592 98.3488 298.391 98.3488C298.187 98.3488 298.033 98.4155 297.929 98.5491C297.825 98.6827 297.773 98.8441 297.773 99.0333H297.083C297.091 98.7476 297.154 98.5101 297.273 98.3209C297.391 98.128 297.549 97.9852 297.746 97.8924C297.942 97.7959 298.163 97.7477 298.408 97.7477C298.805 97.7477 299.113 97.8572 299.332 98.0761C299.554 98.2912 299.666 98.5714 299.666 98.9164C299.666 99.1316 299.616 99.3412 299.515 99.5453C299.419 99.7493 299.291 99.946 299.131 100.135C298.972 100.324 298.799 100.502 298.614 100.669C298.428 100.833 298.248 100.985 298.074 101.126H299.76V101.71H297.078ZM300.53 101.749C300.4 101.749 300.292 101.708 300.207 101.627C300.125 101.545 300.085 101.447 300.085 101.332C300.085 101.213 300.125 101.113 300.207 101.031C300.292 100.95 300.4 100.909 300.53 100.909C300.66 100.909 300.765 100.95 300.847 101.031C300.932 101.113 300.975 101.213 300.975 101.332C300.975 101.447 300.932 101.545 300.847 101.627C300.765 101.708 300.66 101.749 300.53 101.749ZM303.247 101.71V100.987H301.327V100.419L303.152 97.8145H303.959V100.369H304.471V100.987H303.959V101.71H303.247ZM302.089 100.369H303.292V98.5992L302.089 100.369ZM306.317 101.777C306.031 101.777 305.785 101.727 305.577 101.627C305.373 101.526 305.211 101.389 305.093 101.215C304.978 101.037 304.911 100.836 304.892 100.614H305.588C305.621 100.773 305.703 100.907 305.833 101.014C305.963 101.118 306.124 101.17 306.317 101.17C306.525 101.17 306.694 101.094 306.823 100.942C306.957 100.79 307.024 100.601 307.024 100.374C307.024 100.141 306.957 99.9552 306.823 99.818C306.694 99.6807 306.528 99.6121 306.328 99.6121C306.161 99.6121 306.016 99.6529 305.894 99.7345C305.772 99.8161 305.684 99.9181 305.632 100.041H304.948L305.282 97.8145H307.441V98.4378H305.816L305.638 99.3394C305.72 99.2503 305.831 99.178 305.972 99.1223C306.113 99.063 306.271 99.0333 306.445 99.0333C306.723 99.0333 306.955 99.0963 307.141 99.2225C307.326 99.3449 307.467 99.5082 307.564 99.7122C307.66 99.9126 307.708 100.131 307.708 100.369C307.708 100.64 307.649 100.881 307.53 101.092C307.415 101.304 307.252 101.471 307.04 101.593C306.833 101.716 306.591 101.777 306.317 101.777ZM309.061 99.7289C308.883 99.7289 308.722 99.69 308.577 99.6121C308.432 99.5304 308.317 99.4154 308.232 99.267C308.147 99.1186 308.104 98.9424 308.104 98.7383C308.104 98.5343 308.147 98.358 308.232 98.2096C308.317 98.0612 308.432 97.9481 308.577 97.8701C308.722 97.7885 308.885 97.7477 309.067 97.7477C309.245 97.7477 309.404 97.7885 309.545 97.8701C309.69 97.9481 309.805 98.0612 309.89 98.2096C309.976 98.358 310.018 98.5343 310.018 98.7383C310.018 98.9424 309.976 99.1186 309.89 99.267C309.805 99.4154 309.69 99.5304 309.545 99.6121C309.401 99.69 309.239 99.7289 309.061 99.7289ZM308.85 101.71L311.048 97.8145H311.744L309.545 101.71H308.85ZM309.061 99.2336C309.169 99.2336 309.262 99.1928 309.339 99.1112C309.417 99.0259 309.456 98.9016 309.456 98.7383C309.456 98.5751 309.417 98.4508 309.339 98.3654C309.265 98.2801 309.173 98.2374 309.061 98.2374C308.95 98.2374 308.855 98.2801 308.777 98.3654C308.703 98.4508 308.666 98.5751 308.666 98.7383C308.666 98.9016 308.703 99.0259 308.777 99.1112C308.855 99.1928 308.95 99.2336 309.061 99.2336ZM311.554 101.777C311.376 101.777 311.215 101.738 311.07 101.66C310.926 101.578 310.811 101.463 310.725 101.315C310.64 101.167 310.597 100.99 310.597 100.786C310.597 100.582 310.64 100.408 310.725 100.263C310.811 100.115 310.926 100.002 311.07 99.9237C311.215 99.8421 311.378 99.8013 311.56 99.8013C311.738 99.8013 311.898 99.8421 312.039 99.9237C312.183 100.002 312.298 100.115 312.384 100.263C312.469 100.408 312.512 100.582 312.512 100.786C312.512 100.99 312.469 101.167 312.384 101.315C312.298 101.463 312.183 101.578 312.039 101.66C311.898 101.738 311.736 101.777 311.554 101.777ZM311.554 101.282C311.666 101.282 311.759 101.241 311.833 101.159C311.911 101.074 311.95 100.95 311.95 100.786C311.95 100.623 311.911 100.499 311.833 100.413C311.759 100.328 311.666 100.285 311.554 100.285C311.443 100.285 311.349 100.328 311.271 100.413C311.196 100.499 311.159 100.623 311.159 100.786C311.159 100.95 311.196 101.074 311.271 101.159C311.349 101.241 311.443 101.282 311.554 101.282Z" fill="#05CD99"/>
<rect x="359.739" y="42.2028" width="13.913" height="13.913" rx="3.24638" fill="#F4F7FE"/>
<g clip-path="url(#clip1_54_1726)">
<path d="M364.099 47.861H364.191C364.549 47.861 364.841 48.1531 364.841 48.5102V51.7566C364.841 52.1137 364.549 52.4059 364.191 52.4059H364.099C363.742 52.4059 363.449 52.1137 363.449 51.7566V48.5102C363.449 48.1531 363.742 47.861 364.099 47.861ZM366.696 45.9131C367.053 45.9131 367.345 46.2053 367.345 46.5624V51.7566C367.345 52.1137 367.053 52.4059 366.696 52.4059C366.339 52.4059 366.047 52.1137 366.047 51.7566V46.5624C366.047 46.2053 366.339 45.9131 366.696 45.9131ZM369.293 49.6233C369.65 49.6233 369.942 49.9155 369.942 50.2726V51.7566C369.942 52.1137 369.65 52.4059 369.293 52.4059C368.936 52.4059 368.644 52.1137 368.644 51.7566V50.2726C368.644 49.9155 368.936 49.6233 369.293 49.6233Z" fill="#6178FF"/>
</g>
<path d="M235.209 154.007C231.046 157.903 225.495 154.548 223.24 152.384L209.71 214.761L387.943 221.717C389.07 193.35 389.868 135.549 384.04 131.282C376.754 125.949 373.112 135.92 371.811 138.935C370.51 141.949 366.086 144.268 362.444 143.34C358.801 142.413 350.995 154.007 345.531 156.79C340.067 159.572 332.521 144.268 329.139 141.717C325.756 139.166 322.894 144.732 321.593 144.268C320.292 143.804 314.828 129.195 310.925 129.427C307.023 129.659 303.64 143.34 300.778 141.717C297.916 140.094 294.793 152.384 285.166 160.5C275.539 168.616 271.636 129.659 266.432 127.804C261.229 125.949 259.667 134.065 254.464 141.717C249.26 149.369 246.918 143.572 245.357 141.717C243.796 139.862 240.413 149.137 235.209 154.007Z" fill="url(#paint0_linear_54_1726)" stroke="#6178FF" stroke-width="1.85507" stroke-linecap="round" stroke-linejoin="round"/>
<path d="M235.209 154.007C231.046 157.903 225.495 154.548 223.24 152.384L209.71 214.761L387.943 221.717C389.07 193.35 389.868 135.549 384.04 131.282C376.754 125.949 373.112 135.92 371.811 138.935C370.51 141.949 366.086 144.268 362.444 143.34C358.801 142.413 350.995 154.007 345.531 156.79C340.067 159.572 332.521 144.268 329.139 141.717C325.756 139.166 322.894 144.732 321.593 144.268C320.292 143.804 314.828 129.195 310.925 129.427C307.023 129.659 303.64 143.34 300.778 141.717C297.916 140.094 294.793 152.384 285.166 160.5C275.539 168.616 271.636 129.659 266.432 127.804C261.229 125.949 259.667 134.065 254.464 141.717C249.26 149.369 246.918 143.572 245.357 141.717C243.796 139.862 240.413 149.137 235.209 154.007Z" stroke="#6178FF" stroke-width="1.85507" stroke-linecap="round" stroke-linejoin="round"/>
</g>
<rect x="222.467" y="32.467" width="161.385" height="159.066" rx="10.7404" stroke="#AFBBFF" stroke-width="0.933948"/>
</g>
<g filter="url(#filter1_d_54_1726)">
<g clip-path="url(#clip2_54_1726)">
<rect x="427" y="13" width="162.319" height="160" rx="11.2074" fill="white"/>
<path d="M425.276 136.94C422.677 131.69 419.468 131.953 418.188 132.74V175.52H592.733V100.719C589.189 101.682 583.782 104.877 574.718 100.719C565.562 96.52 564.971 102.557 562.904 110.955C561.028 118.579 556.407 112.005 547.251 120.666C539.89 127.63 536.501 99.1447 534.847 91.7956C533.665 86.5464 529.235 85.2342 528.054 91.7956C526.873 100.719 526.105 118.147 525.396 120.666C524.288 124.604 521.953 125.079 520.08 123.554C516.536 120.666 517.127 110.484 517.127 103.344C517.127 96.52 512.56 96.52 511.81 100.719C508.857 117.255 508.562 142.435 503.541 142.713C499.761 142.923 498.52 136.414 496.453 130.116C495.677 127.753 492.909 126.126 489.365 130.116C484.935 135.102 483.458 130.641 483.163 128.803C482.867 126.965 481.422 117.282 481.095 98.0956C480.8 80.7731 473.635 81.5603 473.121 88.6467C471.349 113.056 473.437 146.125 465.147 146.125C460.421 146.125 460.421 137.444 460.421 130.378C460.421 124.603 456.582 124.078 455.401 128.803C454.219 133.527 453.333 139.039 449.494 139.039C445.025 139.039 443.587 132.215 443.587 126.966C443.587 121.716 442.993 115.434 440.634 115.155C436.204 114.63 436.794 133.265 435.318 139.039C434.147 143.618 428.525 143.501 425.276 136.94Z" fill="url(#paint1_linear_54_1726)"/>
<path d="M418.188 132.74C419.468 131.953 422.677 131.69 425.276 136.94C428.525 143.501 434.147 143.618 435.318 139.039C436.794 133.265 436.204 114.63 440.634 115.155C442.993 115.434 443.587 121.716 443.587 126.966C443.587 132.215 445.025 139.039 449.494 139.039C453.333 139.039 454.219 133.527 455.401 128.803C456.582 124.078 460.421 124.603 460.421 130.378C460.421 137.444 460.421 146.125 465.147 146.125C473.437 146.125 471.349 113.056 473.121 88.6467C473.635 81.5603 480.8 80.7731 481.095 98.0956C481.422 117.282 482.867 126.965 483.163 128.803C483.458 130.641 484.935 135.102 489.365 130.116C492.909 126.126 495.677 127.753 496.453 130.116C498.52 136.414 499.761 142.923 503.541 142.713C508.562 142.435 508.857 117.255 511.81 100.719C512.56 96.52 517.126 96.52 517.126 103.344C517.126 110.484 516.536 120.666 520.08 123.554C521.953 125.079 524.288 124.603 525.396 120.666C526.105 118.147 526.873 100.719 528.054 91.7956C529.235 85.2342 533.665 86.5464 534.847 91.7956C536.501 99.1447 539.89 127.63 547.251 120.666C556.407 112.005 561.028 118.579 562.904 110.955C564.971 102.557 565.562 96.52 574.718 100.719C583.782 104.877 589.189 101.682 592.733 100.719" stroke="url(#paint2_linear_54_1726)" stroke-width="1.3913" stroke-linecap="round" stroke-linejoin="round"/>
<path d="M441.602 31.6666V29.9915L440.095 27.1217H440.875L441.946 29.3162L443.011 27.1217H443.783L442.29 29.9915V31.6666H441.602ZM445.132 31.7445C444.824 31.7445 444.547 31.6753 444.301 31.5368C444.058 31.3939 443.866 31.197 443.723 30.9459C443.58 30.6905 443.509 30.394 443.509 30.0564C443.509 29.7188 443.58 29.4245 443.723 29.1734C443.87 28.918 444.067 28.7211 444.314 28.5826C444.56 28.4397 444.835 28.3683 445.138 28.3683C445.446 28.3683 445.72 28.4397 445.963 28.5826C446.21 28.7211 446.404 28.918 446.547 29.1734C446.694 29.4245 446.768 29.7188 446.768 30.0564C446.768 30.394 446.694 30.6905 446.547 30.9459C446.404 31.197 446.21 31.3939 445.963 31.5368C445.716 31.6753 445.439 31.7445 445.132 31.7445ZM445.132 31.1537C445.296 31.1537 445.448 31.1126 445.586 31.0303C445.729 30.9481 445.844 30.8269 445.93 30.6667C446.017 30.5023 446.06 30.2988 446.06 30.0564C446.06 29.814 446.017 29.6128 445.93 29.4526C445.848 29.2881 445.736 29.1648 445.593 29.0825C445.454 29.0003 445.303 28.9591 445.138 28.9591C444.974 28.9591 444.82 29.0003 444.677 29.0825C444.539 29.1648 444.426 29.2881 444.34 29.4526C444.253 29.6128 444.21 29.814 444.21 30.0564C444.21 30.2988 444.253 30.5023 444.34 30.6667C444.426 30.8269 444.539 30.9481 444.677 31.0303C444.816 31.1126 444.967 31.1537 445.132 31.1537ZM448.571 31.7445C448.181 31.7445 447.874 31.6233 447.649 31.3809C447.428 31.1385 447.317 30.7771 447.317 30.2967V28.4462H448.006V30.2252C448.006 30.8485 448.261 31.1602 448.772 31.1602C449.027 31.1602 449.237 31.0693 449.402 30.8875C449.566 30.7057 449.648 30.446 449.648 30.1084V28.4462H450.337V31.6666H449.726L449.674 31.1018C449.575 31.3009 449.428 31.4589 449.233 31.5757C449.042 31.6883 448.822 31.7445 448.571 31.7445ZM451.082 31.6666V28.4462H451.699L451.757 29.0565C451.87 28.8444 452.026 28.6778 452.225 28.5566C452.428 28.4311 452.673 28.3683 452.959 28.3683V29.089H452.77C452.58 29.089 452.409 29.1215 452.257 29.1864C452.11 29.247 451.991 29.353 451.9 29.5045C451.814 29.6517 451.77 29.8573 451.77 30.1214V31.6666H451.082ZM456.431 31.7445C456.115 31.7445 455.834 31.6753 455.587 31.5368C455.345 31.3939 455.154 31.197 455.016 30.9459C454.877 30.6949 454.808 30.4027 454.808 30.0694C454.808 29.7318 454.875 29.4353 455.009 29.1799C455.148 28.9245 455.338 28.7254 455.581 28.5826C455.827 28.4397 456.113 28.3683 456.438 28.3683C456.754 28.3683 457.028 28.4397 457.262 28.5826C457.496 28.7211 457.678 28.9072 457.808 29.1409C457.937 29.3747 458.002 29.6322 458.002 29.9136C458.002 29.9569 458 30.0045 457.996 30.0564C457.996 30.104 457.994 30.1581 457.989 30.2187H455.483C455.505 30.5304 455.607 30.7685 455.788 30.9329C455.974 31.0931 456.189 31.1732 456.431 31.1732C456.626 31.1732 456.788 31.1299 456.918 31.0433C457.052 30.9524 457.152 30.8312 457.217 30.6797H457.905C457.818 30.9827 457.645 31.2359 457.386 31.4394C457.13 31.6428 456.812 31.7445 456.431 31.7445ZM456.431 28.9332C456.202 28.9332 455.998 29.0024 455.821 29.1409C455.643 29.2751 455.535 29.4786 455.496 29.7513H457.314C457.301 29.5002 457.212 29.3011 457.048 29.1539C456.883 29.0068 456.678 28.9332 456.431 28.9332ZM459.677 31.7445C459.405 31.7445 459.18 31.6991 459.002 31.6082C458.825 31.5173 458.693 31.3983 458.606 31.2511C458.52 31.0996 458.476 30.9351 458.476 30.7576C458.476 30.446 458.597 30.1993 458.84 30.0175C459.082 29.8357 459.429 29.7448 459.879 29.7448H460.723V29.6863C460.723 29.4353 460.654 29.247 460.515 29.1215C460.381 28.9959 460.206 28.9332 459.989 28.9332C459.799 28.9332 459.632 28.9808 459.489 29.076C459.351 29.1669 459.266 29.3033 459.236 29.4851H458.548C458.569 29.2513 458.647 29.0522 458.781 28.8877C458.92 28.7189 459.093 28.5912 459.301 28.5047C459.513 28.4138 459.745 28.3683 459.996 28.3683C460.446 28.3683 460.794 28.4873 461.041 28.7254C461.288 28.9591 461.411 29.2795 461.411 29.6863V31.6666H460.814L460.755 31.1147C460.664 31.2922 460.532 31.4415 460.359 31.5627C460.186 31.6839 459.959 31.7445 459.677 31.7445ZM459.814 31.1862C460 31.1862 460.156 31.1429 460.281 31.0563C460.411 30.9654 460.511 30.8464 460.58 30.6992C460.654 30.552 460.699 30.3897 460.716 30.2122H459.95C459.677 30.2122 459.483 30.2599 459.366 30.3551C459.253 30.4503 459.197 30.5694 459.197 30.7122C459.197 30.8594 459.251 30.9762 459.359 31.0628C459.472 31.145 459.623 31.1862 459.814 31.1862ZM462.084 31.6666V28.4462H462.7L462.759 29.0565C462.871 28.8444 463.027 28.6778 463.226 28.5566C463.43 28.4311 463.674 28.3683 463.96 28.3683V29.089H463.772C463.581 29.089 463.41 29.1215 463.259 29.1864C463.112 29.247 462.993 29.353 462.902 29.5045C462.815 29.6517 462.772 29.8573 462.772 30.1214V31.6666H462.084ZM464.42 31.6666V28.4462H465.031L465.082 29.0111C465.182 28.812 465.327 28.6562 465.518 28.5436C465.712 28.4267 465.935 28.3683 466.186 28.3683C466.576 28.3683 466.881 28.4895 467.102 28.7319C467.327 28.9743 467.439 29.3357 467.439 29.8162V31.6666H466.758V29.8876C466.758 29.2643 466.502 28.9527 465.991 28.9527C465.736 28.9527 465.524 29.0436 465.355 29.2254C465.191 29.4071 465.108 29.6669 465.108 30.0045V31.6666H464.42ZM468.51 27.8359C468.38 27.8359 468.272 27.7969 468.185 27.719C468.103 27.6368 468.062 27.5351 468.062 27.4139C468.062 27.2927 468.103 27.1931 468.185 27.1152C468.272 27.033 468.38 26.9918 468.51 26.9918C468.64 26.9918 468.746 27.033 468.828 27.1152C468.914 27.1931 468.958 27.2927 468.958 27.4139C468.958 27.5351 468.914 27.6368 468.828 27.719C468.746 27.7969 468.64 27.8359 468.51 27.8359ZM468.166 31.6666V28.4462H468.854V31.6666H468.166ZM469.632 31.6666V28.4462H470.243L470.295 29.0111C470.394 28.812 470.539 28.6562 470.73 28.5436C470.924 28.4267 471.147 28.3683 471.398 28.3683C471.788 28.3683 472.093 28.4895 472.314 28.7319C472.539 28.9743 472.652 29.3357 472.652 29.8162V31.6666H471.97V29.8876C471.97 29.2643 471.714 28.9527 471.204 28.9527C470.948 28.9527 470.736 29.0436 470.567 29.2254C470.403 29.4071 470.321 29.6669 470.321 30.0045V31.6666H469.632ZM474.65 30.6797C474.482 30.6797 474.326 30.6602 474.183 30.6213L473.904 30.894C473.951 30.9243 474.01 30.9503 474.079 30.9719C474.148 30.9935 474.246 31.013 474.371 31.0303C474.497 31.0477 474.668 31.065 474.884 31.0823C475.313 31.1212 475.622 31.2251 475.813 31.3939C476.003 31.5584 476.098 31.7792 476.098 32.0562C476.098 32.2466 476.046 32.4263 475.942 32.5951C475.843 32.7682 475.685 32.9067 475.468 33.0106C475.256 33.1188 474.984 33.1729 474.65 33.1729C474.2 33.1729 473.834 33.0864 473.553 32.9132C473.276 32.7444 473.138 32.4869 473.138 32.1406C473.138 32.0064 473.172 31.8722 473.241 31.738C473.315 31.6082 473.43 31.4848 473.586 31.368C473.495 31.329 473.415 31.2879 473.345 31.2446C473.28 31.197 473.222 31.1494 473.17 31.1018V30.9459L473.728 30.3746C473.477 30.1581 473.352 29.8746 473.352 29.524C473.352 29.3119 473.402 29.1193 473.501 28.9462C473.605 28.7687 473.754 28.628 473.949 28.5241C474.144 28.4202 474.378 28.3683 474.65 28.3683C474.832 28.3683 475.001 28.3943 475.157 28.4462H476.358V28.9007L475.787 28.9332C475.89 29.1106 475.942 29.3076 475.942 29.524C475.942 29.7404 475.89 29.9352 475.787 30.1084C475.687 30.2815 475.54 30.42 475.345 30.5239C475.155 30.6278 474.923 30.6797 474.65 30.6797ZM474.65 30.1408C474.849 30.1408 475.01 30.0889 475.131 29.985C475.256 29.8768 475.319 29.7253 475.319 29.5305C475.319 29.3314 475.256 29.1799 475.131 29.076C475.01 28.9721 474.849 28.9202 474.65 28.9202C474.447 28.9202 474.282 28.9721 474.157 29.076C474.036 29.1799 473.975 29.3314 473.975 29.5305C473.975 29.7253 474.036 29.8768 474.157 29.985C474.282 30.0889 474.447 30.1408 474.65 30.1408ZM473.787 32.0757C473.787 32.2618 473.869 32.4003 474.034 32.4912C474.198 32.5864 474.404 32.634 474.65 32.634C474.888 32.634 475.081 32.5821 475.228 32.4782C475.375 32.3787 475.449 32.2445 475.449 32.0757C475.449 31.9501 475.399 31.8419 475.3 31.751C475.2 31.6645 475.012 31.6104 474.735 31.5887C474.527 31.5757 474.343 31.5562 474.183 31.5303C474.031 31.6125 473.927 31.7013 473.871 31.7965C473.815 31.8917 473.787 31.9848 473.787 32.0757ZM478.127 31.7445C477.721 31.7445 477.385 31.645 477.121 31.4459C476.857 31.2468 476.706 30.9827 476.667 30.6538H477.361C477.396 30.8009 477.478 30.9286 477.608 31.0368C477.738 31.1407 477.909 31.1927 478.121 31.1927C478.329 31.1927 478.48 31.1494 478.575 31.0628C478.671 30.9762 478.718 30.8767 478.718 30.7641C478.718 30.5997 478.651 30.4893 478.517 30.433C478.387 30.3724 478.205 30.3183 477.972 30.2707C477.79 30.2317 477.608 30.1798 477.426 30.1149C477.249 30.0499 477.099 29.959 476.978 29.8422C476.861 29.721 476.803 29.5586 476.803 29.3552C476.803 29.0739 476.911 28.8401 477.128 28.654C477.344 28.4635 477.647 28.3683 478.037 28.3683C478.396 28.3683 478.686 28.4549 478.907 28.628C479.132 28.8012 479.264 29.0457 479.303 29.3617H478.64C478.619 29.2232 478.554 29.115 478.446 29.0371C478.342 28.9591 478.201 28.9202 478.024 28.9202C477.85 28.9202 477.716 28.957 477.621 29.0306C477.526 29.0998 477.478 29.1907 477.478 29.3033C477.478 29.4158 477.543 29.5045 477.673 29.5695C477.807 29.6344 477.982 29.6928 478.199 29.7448C478.415 29.7924 478.614 29.8487 478.796 29.9136C478.982 29.9742 479.132 30.0651 479.244 30.1863C479.357 30.3075 479.413 30.4849 479.413 30.7187C479.417 31.013 479.303 31.2576 479.069 31.4524C478.84 31.6471 478.526 31.7445 478.127 31.7445Z" fill="#A3AED0"/>
<path d="M445.903 57.0127V55.2868C444.453 55.1224 443.273 54.6143 442.361 53.7626C441.45 52.9108 440.979 51.7677 440.949 50.3331H443.975C444.005 50.9308 444.184 51.4538 444.513 51.9021C444.857 52.3504 445.32 52.6568 445.903 52.8211V48.0916C445.768 48.0468 445.626 48.002 445.477 47.9571C445.342 47.9123 445.201 47.8675 445.051 47.8227C443.841 47.4043 442.914 46.8663 442.272 46.2088C441.644 45.5513 441.33 44.6771 441.33 43.5863C441.315 42.3012 441.734 41.2701 442.585 40.493C443.437 39.701 444.543 39.2453 445.903 39.1257V37.3101H447.405V39.1482C448.75 39.2826 449.833 39.7534 450.655 40.5603C451.492 41.3523 451.932 42.3759 451.977 43.6311H448.906C448.891 43.1977 448.75 42.8018 448.481 42.4431C448.227 42.0695 447.868 41.808 447.405 41.6586V45.8277C447.524 45.8726 447.644 45.9174 447.763 45.9622C447.883 45.9921 448.002 46.0295 448.122 46.0743C448.899 46.3433 449.609 46.6571 450.251 47.0157C450.894 47.3744 451.409 47.8525 451.798 48.4503C452.186 49.0331 452.381 49.7877 452.381 50.7142C452.381 51.4912 452.186 52.2159 451.798 52.8884C451.424 53.5608 450.864 54.1212 450.117 54.5695C449.385 55.0028 448.481 55.2494 447.405 55.3092V57.0127H445.903ZM444.334 43.3845C444.334 43.8627 444.476 44.2512 444.76 44.5501C445.044 44.834 445.425 45.0806 445.903 45.2898V41.5689C445.44 41.6586 445.059 41.8603 444.76 42.1741C444.476 42.4879 444.334 42.8914 444.334 43.3845ZM449.332 50.9159C449.332 50.3182 449.153 49.8475 448.794 49.5038C448.436 49.1601 447.972 48.8687 447.405 48.6296V52.8884C448.002 52.7987 448.473 52.5821 448.817 52.2384C449.16 51.8947 449.332 51.4538 449.332 50.9159ZM459.569 55.3316C458.538 55.3316 457.604 55.1523 456.767 54.7936C455.93 54.4201 455.258 53.8522 454.749 53.0901C454.241 52.328 453.972 51.3717 453.943 50.221H456.767C456.782 50.9831 457.028 51.6257 457.507 52.1487C458 52.6568 458.687 52.9108 459.569 52.9108C460.405 52.9108 461.048 52.6792 461.496 52.2159C461.945 51.7527 462.169 51.1699 462.169 50.4676C462.169 49.6457 461.87 49.0256 461.272 48.6072C460.689 48.1738 459.935 47.9571 459.008 47.9571H457.843V45.6036H459.031C459.793 45.6036 460.428 45.4243 460.936 45.0656C461.444 44.707 461.698 44.1765 461.698 43.4742C461.698 42.8914 461.504 42.4282 461.115 42.0845C460.742 41.7258 460.219 41.5465 459.546 41.5465C458.814 41.5465 458.239 41.7632 457.82 42.1966C457.417 42.6299 457.193 43.1604 457.148 43.788H454.346C454.406 42.3385 454.906 41.1954 455.848 40.3585C456.804 39.5217 458.037 39.1033 459.546 39.1033C460.622 39.1033 461.526 39.2976 462.258 39.6861C463.006 40.0597 463.566 40.5603 463.94 41.1879C464.328 41.8155 464.522 42.5104 464.522 43.2725C464.522 44.1541 464.276 44.9013 463.783 45.5139C463.304 46.1117 462.707 46.5151 461.989 46.7243C462.871 46.9037 463.588 47.337 464.141 48.0244C464.694 48.6968 464.971 49.5486 464.971 50.5797C464.971 51.4464 464.761 52.2384 464.343 52.9556C463.925 53.6729 463.312 54.2482 462.505 54.6816C461.713 55.1149 460.734 55.3316 459.569 55.3316ZM466.959 55.0626V52.9781C467.915 52.1861 468.842 51.4015 469.738 50.6245C470.65 49.8475 471.457 49.0779 472.159 48.3158C472.876 47.5537 473.444 46.814 473.863 46.0967C474.296 45.3645 474.513 44.6547 474.513 43.9673C474.513 43.3248 474.333 42.7569 473.975 42.2638C473.631 41.7707 473.056 41.5241 472.249 41.5241C471.427 41.5241 470.807 41.7931 470.388 42.331C469.97 42.869 469.761 43.519 469.761 44.2811H466.981C467.011 43.1305 467.265 42.1741 467.743 41.412C468.222 40.635 468.857 40.0597 469.649 39.6861C470.441 39.2976 471.33 39.1033 472.316 39.1033C473.915 39.1033 475.155 39.5441 476.037 40.4258C476.933 41.2925 477.382 42.4207 477.382 43.8104C477.382 44.6771 477.18 45.5214 476.777 46.3433C476.388 47.1652 475.872 47.9571 475.23 48.7192C474.587 49.4814 473.892 50.1986 473.145 50.8711C472.398 51.5286 471.673 52.1412 470.971 52.7091H477.763V55.0626H466.959ZM486.673 55.0626V52.1487H478.94V49.8624L486.292 39.3723H489.542V49.6607H491.604V52.1487H489.542V55.0626H486.673ZM482.01 49.6607H486.852V42.5328L482.01 49.6607ZM494.577 55.2195C494.054 55.2195 493.62 55.0552 493.277 54.7264C492.948 54.3977 492.783 54.0017 492.783 53.5384C492.783 53.0602 492.948 52.6568 493.277 52.328C493.62 51.9993 494.054 51.8349 494.577 51.8349C495.1 51.8349 495.526 51.9993 495.854 52.328C496.198 52.6568 496.37 53.0602 496.37 53.5384C496.37 54.0017 496.198 54.3977 495.854 54.7264C495.526 55.0552 495.1 55.2195 494.577 55.2195ZM503.974 55.3316C502.823 55.3316 501.829 55.1299 500.993 54.7264C500.171 54.3229 499.521 53.77 499.042 53.0677C498.579 52.3504 498.31 51.5435 498.235 50.6469H501.037C501.172 51.2895 501.501 51.8274 502.024 52.2608C502.547 52.6792 503.197 52.8884 503.974 52.8884C504.81 52.8884 505.49 52.5821 506.013 51.9694C506.551 51.3567 506.82 50.5946 506.82 49.6831C506.82 48.7417 506.551 47.9945 506.013 47.4416C505.49 46.8887 504.825 46.6123 504.019 46.6123C503.346 46.6123 502.763 46.7766 502.27 47.1054C501.777 47.4341 501.426 47.8451 501.217 48.3382H498.46L499.805 39.3723H508.501V41.8828H501.956L501.239 45.5139C501.568 45.1553 502.016 44.8639 502.584 44.6398C503.152 44.4007 503.787 44.2811 504.489 44.2811C505.61 44.2811 506.544 44.5352 507.291 45.0432C508.038 45.5364 508.606 46.1939 508.995 47.0157C509.383 47.8227 509.577 48.7043 509.577 49.6607C509.577 50.7515 509.338 51.7228 508.86 52.5746C508.397 53.4263 507.739 54.0988 506.888 54.5919C506.051 55.085 505.079 55.3316 503.974 55.3316Z" fill="#1B2559"/>
<g clip-path="url(#clip3_54_1726)">
<path d="M551.42 29.3624L553.159 27.6233L554.898 29.3624H551.42Z" fill="#05CD99"/>
</g>
<path d="M558.18 29.3534V28.7579H559.226V27.7951H559.833V28.7579H560.873V29.3534H559.833V30.3161H559.226V29.3534H558.18ZM561.532 30.6667L563.001 27.3777H561.081V26.7711H563.736V27.2775L562.272 30.6667H561.532ZM564.128 30.7057C563.999 30.7057 563.891 30.6649 563.806 30.5833C563.724 30.5016 563.683 30.4033 563.683 30.2883C563.683 30.1696 563.724 30.0694 563.806 29.9878C563.891 29.9062 563.999 29.8654 564.128 29.8654C564.258 29.8654 564.364 29.9062 564.446 29.9878C564.531 30.0694 564.574 30.1696 564.574 30.2883C564.574 30.4033 564.531 30.5016 564.446 30.5833C564.364 30.6649 564.258 30.7057 564.128 30.7057ZM566.846 30.6667V29.9433H564.926V29.3756L566.751 26.7711H567.558V29.3255H568.07V29.9433H567.558V30.6667H566.846ZM565.688 29.3255H566.89V27.5558L565.688 29.3255ZM569.916 30.7335C569.63 30.7335 569.383 30.6834 569.175 30.5833C568.971 30.4831 568.81 30.3458 568.691 30.1714C568.576 29.9934 568.509 29.793 568.491 29.5704H569.186C569.22 29.7299 569.301 29.8635 569.431 29.9711C569.561 30.075 569.723 30.1269 569.916 30.1269C570.123 30.1269 570.292 30.0509 570.422 29.8987C570.556 29.7466 570.622 29.5574 570.622 29.3311C570.622 29.0974 570.556 28.9118 570.422 28.7746C570.292 28.6373 570.127 28.5687 569.927 28.5687C569.76 28.5687 569.615 28.6095 569.493 28.6911C569.37 28.7727 569.283 28.8747 569.231 28.9972H568.546L568.88 26.7711H571.04V27.3944H569.415L569.237 28.296C569.318 28.2069 569.429 28.1346 569.57 28.0789C569.711 28.0196 569.869 27.9899 570.044 27.9899C570.322 27.9899 570.554 28.053 570.739 28.1791C570.925 28.3015 571.066 28.4648 571.162 28.6688C571.259 28.8692 571.307 29.0881 571.307 29.3255C571.307 29.5964 571.247 29.8375 571.129 30.049C571.014 30.2605 570.85 30.4274 570.639 30.5499C570.431 30.6723 570.19 30.7335 569.916 30.7335ZM572.66 28.6855C572.482 28.6855 572.32 28.6466 572.176 28.5687C572.031 28.487 571.916 28.372 571.831 28.2236C571.745 28.0752 571.703 27.899 571.703 27.6949C571.703 27.4909 571.745 27.3146 571.831 27.1662C571.916 27.0178 572.031 26.9047 572.176 26.8267C572.32 26.7451 572.484 26.7043 572.665 26.7043C572.843 26.7043 573.003 26.7451 573.144 26.8267C573.289 26.9047 573.404 27.0178 573.489 27.1662C573.574 27.3146 573.617 27.4909 573.617 27.6949C573.617 27.899 573.574 28.0752 573.489 28.2236C573.404 28.372 573.289 28.487 573.144 28.5687C572.999 28.6466 572.838 28.6855 572.66 28.6855ZM572.448 30.6667L574.647 26.7711H575.342L573.144 30.6667H572.448ZM572.66 28.1902C572.767 28.1902 572.86 28.1494 572.938 28.0678C573.016 27.9825 573.055 27.8582 573.055 27.6949C573.055 27.5317 573.016 27.4074 572.938 27.3221C572.864 27.2367 572.771 27.1941 572.66 27.1941C572.549 27.1941 572.454 27.2367 572.376 27.3221C572.302 27.4074 572.265 27.5317 572.265 27.6949C572.265 27.8582 572.302 27.9825 572.376 28.0678C572.454 28.1494 572.549 28.1902 572.66 28.1902ZM575.153 30.7335C574.975 30.7335 574.814 30.6946 574.669 30.6167C574.524 30.535 574.409 30.42 574.324 30.2716C574.238 30.1232 574.196 29.947 574.196 29.7429C574.196 29.5389 574.238 29.3645 574.324 29.2198C574.409 29.0714 574.524 28.9582 574.669 28.8803C574.814 28.7987 574.977 28.7579 575.159 28.7579C575.337 28.7579 575.496 28.7987 575.637 28.8803C575.782 28.9582 575.897 29.0714 575.982 29.2198C576.068 29.3645 576.11 29.5389 576.11 29.7429C576.11 29.947 576.068 30.1232 575.982 30.2716C575.897 30.42 575.782 30.535 575.637 30.6167C575.496 30.6946 575.335 30.7335 575.153 30.7335ZM575.153 30.2382C575.264 30.2382 575.357 30.1974 575.431 30.1158C575.509 30.0305 575.548 29.9062 575.548 29.7429C575.548 29.5797 575.509 29.4554 575.431 29.3701C575.357 29.2847 575.264 29.2421 575.153 29.2421C575.042 29.2421 574.947 29.2847 574.869 29.3701C574.795 29.4554 574.758 29.5797 574.758 29.7429C574.758 29.9062 574.795 30.0305 574.869 30.1158C574.947 30.1974 575.042 30.2382 575.153 30.2382Z" fill="#05CD99"/>
</g>
<rect x="427.467" y="13.467" width="161.385" height="159.066" rx="10.7404" stroke="#05CD99" stroke-width="0.933948"/>
</g>
<g filter="url(#filter2_d_54_1726)">
<rect x="17" y="15" width="162.319" height="160" rx="11.2074" fill="white"/>
<rect x="17.467" y="15.467" width="161.385" height="159.066" rx="10.7404" stroke="#AFBBFF" stroke-width="0.933948"/>
<path d="M148.519 31.3532V30.7577H149.565V29.7949H150.172V30.7577H151.212V31.3532H150.172V32.316H149.565V31.3532H148.519ZM151.7 32.6666V32.149C151.938 31.9524 152.168 31.7576 152.39 31.5647C152.617 31.3717 152.817 31.1807 152.992 30.9914C153.17 30.8022 153.311 30.6186 153.414 30.4405C153.522 30.2587 153.576 30.0824 153.576 29.9118C153.576 29.7522 153.531 29.6113 153.442 29.4888C153.357 29.3664 153.214 29.3052 153.014 29.3052C152.81 29.3052 152.656 29.372 152.552 29.5055C152.448 29.6391 152.396 29.8005 152.396 29.9897H151.706C151.713 29.704 151.776 29.4666 151.895 29.2773C152.014 29.0844 152.172 28.9416 152.368 28.8488C152.565 28.7524 152.786 28.7041 153.03 28.7041C153.427 28.7041 153.735 28.8136 153.954 29.0325C154.177 29.2477 154.288 29.5278 154.288 29.8728C154.288 30.088 154.238 30.2976 154.138 30.5017C154.042 30.7058 153.914 30.9024 153.754 31.0916C153.594 31.2808 153.422 31.4589 153.236 31.6259C153.051 31.7891 152.871 31.9412 152.697 32.0822H154.383V32.6666H151.7ZM155.152 32.7055C155.023 32.7055 154.915 32.6647 154.83 32.5831C154.748 32.5015 154.707 32.4031 154.707 32.2881C154.707 32.1694 154.748 32.0692 154.83 31.9876C154.915 31.906 155.023 31.8652 155.152 31.8652C155.282 31.8652 155.388 31.906 155.47 31.9876C155.555 32.0692 155.598 32.1694 155.598 32.2881C155.598 32.4031 155.555 32.5015 155.47 32.5831C155.388 32.6647 155.282 32.7055 155.152 32.7055ZM157.87 32.6666V31.9431H155.95V31.3754L157.775 28.7709H158.582V31.3253H159.094V31.9431H158.582V32.6666H157.87ZM156.712 31.3253H157.914V29.5556L156.712 31.3253ZM160.939 32.7333C160.654 32.7333 160.407 32.6833 160.199 32.5831C159.995 32.4829 159.834 32.3456 159.715 32.1713C159.6 31.9932 159.533 31.7928 159.515 31.5702H160.21C160.244 31.7298 160.325 31.8633 160.455 31.9709C160.585 32.0748 160.747 32.1267 160.939 32.1267C161.147 32.1267 161.316 32.0507 161.446 31.8986C161.579 31.7464 161.646 31.5572 161.646 31.3309C161.646 31.0972 161.579 30.9117 161.446 30.7744C161.316 30.6371 161.151 30.5685 160.951 30.5685C160.784 30.5685 160.639 30.6093 160.517 30.6909C160.394 30.7725 160.307 30.8746 160.255 30.997H159.57L159.904 28.7709H162.064V29.3942H160.439L160.261 30.2958C160.342 30.2067 160.453 30.1344 160.594 30.0787C160.735 30.0194 160.893 29.9897 161.067 29.9897C161.346 29.9897 161.578 30.0528 161.763 30.1789C161.949 30.3013 162.09 30.4646 162.186 30.6687C162.283 30.869 162.331 31.0879 162.331 31.3253C162.331 31.5962 162.271 31.8373 162.153 32.0488C162.038 32.2603 161.874 32.4273 161.663 32.5497C161.455 32.6721 161.214 32.7333 160.939 32.7333ZM163.684 30.6853C163.506 30.6853 163.344 30.6464 163.2 30.5685C163.055 30.4869 162.94 30.3718 162.855 30.2234C162.769 30.075 162.727 29.8988 162.727 29.6947C162.727 29.4907 162.769 29.3144 162.855 29.166C162.94 29.0176 163.055 28.9045 163.2 28.8266C163.344 28.7449 163.508 28.7041 163.689 28.7041C163.867 28.7041 164.027 28.7449 164.168 28.8266C164.313 28.9045 164.428 29.0176 164.513 29.166C164.598 29.3144 164.641 29.4907 164.641 29.6947C164.641 29.8988 164.598 30.075 164.513 30.2234C164.428 30.3718 164.313 30.4869 164.168 30.5685C164.023 30.6464 163.862 30.6853 163.684 30.6853ZM163.472 32.6666L165.671 28.7709H166.366L164.168 32.6666H163.472ZM163.684 30.19C163.791 30.19 163.884 30.1492 163.962 30.0676C164.04 29.9823 164.079 29.858 164.079 29.6947C164.079 29.5315 164.04 29.4072 163.962 29.3219C163.888 29.2365 163.795 29.1939 163.684 29.1939C163.572 29.1939 163.478 29.2365 163.4 29.3219C163.326 29.4072 163.289 29.5315 163.289 29.6947C163.289 29.858 163.326 29.9823 163.4 30.0676C163.478 30.1492 163.572 30.19 163.684 30.19ZM166.177 32.7333C165.999 32.7333 165.838 32.6944 165.693 32.6165C165.548 32.5349 165.433 32.4198 165.348 32.2714C165.262 32.123 165.22 31.9468 165.22 31.7427C165.22 31.5387 165.262 31.3643 165.348 31.2196C165.433 31.0712 165.548 30.958 165.693 30.8801C165.838 30.7985 166.001 30.7577 166.183 30.7577C166.361 30.7577 166.52 30.7985 166.661 30.8801C166.806 30.958 166.921 31.0712 167.006 31.2196C167.092 31.3643 167.134 31.5387 167.134 31.7427C167.134 31.9468 167.092 32.123 167.006 32.2714C166.921 32.4198 166.806 32.5349 166.661 32.6165C166.52 32.6944 166.359 32.7333 166.177 32.7333ZM166.177 32.238C166.288 32.238 166.381 32.1972 166.455 32.1156C166.533 32.0303 166.572 31.906 166.572 31.7427C166.572 31.5795 166.533 31.4552 166.455 31.3699C166.381 31.2845 166.288 31.2419 166.177 31.2419C166.066 31.2419 165.971 31.2845 165.893 31.3699C165.819 31.4552 165.782 31.5795 165.782 31.7427C165.782 31.906 165.819 32.0303 165.893 32.1156C165.971 32.1972 166.066 32.238 166.177 32.238Z" fill="#05CD99"/>
<g clip-path="url(#clip4_54_1726)">
<path d="M141.869 30.9999L143.609 29.2607L145.348 30.9999H141.869Z" fill="#05CD99"/>
</g>
<path d="M31.9462 33.7446C31.6129 33.7446 31.3207 33.6862 31.0696 33.5693C30.8186 33.4524 30.6216 33.2858 30.4788 33.0694C30.3403 32.8529 30.2689 32.5954 30.2645 32.2967H30.9917C30.9961 32.5391 31.0805 32.7447 31.2449 32.9135C31.4094 33.0823 31.641 33.1667 31.9397 33.1667C32.2037 33.1667 32.4093 33.104 32.5565 32.9785C32.708 32.8486 32.7837 32.6841 32.7837 32.485C32.7837 32.3249 32.7469 32.195 32.6734 32.0954C32.6041 31.9959 32.5067 31.9136 32.3812 31.8487C32.26 31.7838 32.1193 31.7254 31.9591 31.6734C31.799 31.6215 31.6302 31.5652 31.4527 31.5046C31.1021 31.3877 30.8381 31.2362 30.6606 31.0501C30.4875 30.864 30.4009 30.6194 30.4009 30.3164C30.3966 30.061 30.455 29.8381 30.5762 29.6477C30.7017 29.4572 30.8749 29.31 31.0956 29.2062C31.3207 29.098 31.5826 29.0438 31.8812 29.0438C32.1756 29.0438 32.4331 29.098 32.6539 29.2062C32.879 29.3144 33.0543 29.4659 33.1798 29.6607C33.3053 29.8511 33.3702 30.074 33.3746 30.3294H32.6474C32.6474 30.2125 32.6171 30.1022 32.5565 29.9983C32.4959 29.8901 32.4071 29.8013 32.2903 29.7321C32.1734 29.6628 32.0306 29.6282 31.8618 29.6282C31.6453 29.6239 31.4657 29.678 31.3229 29.7905C31.1843 29.9031 31.1151 30.0589 31.1151 30.258C31.1151 30.4355 31.167 30.5718 31.2709 30.667C31.3748 30.7623 31.5176 30.8423 31.6994 30.9073C31.8812 30.9679 32.089 31.0393 32.3227 31.1215C32.5478 31.1951 32.7491 31.2838 32.9266 31.3877C33.104 31.4916 33.2447 31.628 33.3486 31.7968C33.4568 31.9656 33.5109 32.1798 33.5109 32.4396C33.5109 32.669 33.4525 32.8832 33.3356 33.0823C33.2187 33.2771 33.0434 33.4373 32.8097 33.5628C32.576 33.684 32.2881 33.7446 31.9462 33.7446ZM34.1075 35.0951V30.4463H34.7244L34.7958 30.9462C34.8997 30.7947 35.0425 30.6605 35.2243 30.5437C35.4061 30.4268 35.6398 30.3684 35.9255 30.3684C36.2372 30.3684 36.512 30.442 36.7501 30.5891C36.9882 30.7363 37.1743 30.9376 37.3085 31.1929C37.447 31.4483 37.5162 31.7383 37.5162 32.063C37.5162 32.3876 37.447 32.6776 37.3085 32.933C37.1743 33.1841 36.9882 33.3832 36.7501 33.5303C36.512 33.6732 36.235 33.7446 35.919 33.7446C35.668 33.7446 35.445 33.6948 35.2503 33.5953C35.0598 33.4957 34.9083 33.355 34.7958 33.1732V35.0951H34.1075ZM35.8021 33.1473C36.0965 33.1473 36.3389 33.0477 36.5293 32.8486C36.7198 32.6452 36.815 32.3811 36.815 32.0565C36.815 31.8444 36.7717 31.6561 36.6852 31.4916C36.5986 31.3271 36.4796 31.1994 36.3281 31.1085C36.1766 31.0133 36.0013 30.9657 35.8021 30.9657C35.5078 30.9657 35.2654 31.0674 35.075 31.2709C34.8888 31.4743 34.7958 31.7362 34.7958 32.0565C34.7958 32.3811 34.8888 32.6452 35.075 32.8486C35.2654 33.0477 35.5078 33.1473 35.8021 33.1473ZM39.6371 33.7446C39.3211 33.7446 39.0397 33.6753 38.793 33.5368C38.5506 33.394 38.3602 33.197 38.2217 32.946C38.0832 32.6949 38.0139 32.4028 38.0139 32.0695C38.0139 31.7318 38.081 31.4353 38.2152 31.18C38.3537 30.9246 38.5441 30.7255 38.7865 30.5826C39.0333 30.4398 39.3189 30.3684 39.6436 30.3684C39.9596 30.3684 40.2344 30.4398 40.4682 30.5826C40.7019 30.7211 40.8837 30.9073 41.0135 31.141C41.1434 31.3747 41.2083 31.6323 41.2083 31.9136C41.2083 31.9569 41.2062 32.0045 41.2018 32.0565C41.2018 32.1041 41.1997 32.1582 41.1953 32.2188H38.6891C38.7108 32.5305 38.8125 32.7685 38.9943 32.933C39.1804 33.0932 39.3947 33.1732 39.6371 33.1732C39.8319 33.1732 39.9942 33.13 40.124 33.0434C40.2582 32.9525 40.3578 32.8313 40.4227 32.6798H41.1109C41.0244 32.9828 40.8512 33.236 40.5915 33.4394C40.3361 33.6429 40.018 33.7446 39.6371 33.7446ZM39.6371 30.9332C39.4077 30.9332 39.2042 31.0025 39.0268 31.141C38.8493 31.2752 38.7411 31.4786 38.7021 31.7513H40.5201C40.5071 31.5003 40.4184 31.3012 40.2539 31.154C40.0894 31.0068 39.8838 30.9332 39.6371 30.9332ZM41.7926 33.6667V30.4463H42.4029L42.4548 31.0112C42.5544 30.812 42.6994 30.6562 42.8899 30.5437C43.0846 30.4268 43.3076 30.3684 43.5586 30.3684C43.9482 30.3684 44.2533 30.4896 44.4741 30.732C44.6992 30.9744 44.8117 31.3358 44.8117 31.8163V33.6667H44.13V31.8877C44.13 31.2644 43.8746 30.9527 43.3638 30.9527C43.1084 30.9527 42.8963 31.0436 42.7275 31.2254C42.563 31.4072 42.4808 31.6669 42.4808 32.0045V33.6667H41.7926ZM46.8429 33.6667C46.5269 33.6667 46.2759 33.5909 46.0898 33.4394C45.9036 33.2836 45.8106 33.0088 45.8106 32.6149V31.0241H45.2587V30.4463H45.8106L45.895 29.6282H46.4988V30.4463H47.4078V31.0241H46.4988V32.6149C46.4988 32.7923 46.5356 32.9157 46.6092 32.9849C46.6871 33.0499 46.8191 33.0823 47.0052 33.0823H47.3753V33.6667H46.8429ZM50.8441 33.6667C50.5281 33.6667 50.2771 33.5909 50.0909 33.4394C49.9048 33.2836 49.8117 33.0088 49.8117 32.6149V31.0241H49.2599V30.4463H49.8117L49.8961 29.6282H50.5V30.4463H51.409V31.0241H50.5V32.6149C50.5 32.7923 50.5368 32.9157 50.6103 32.9849C50.6883 33.0499 50.8203 33.0823 51.0064 33.0823H51.3765V33.6667H50.8441ZM51.9887 33.6667V28.9919H52.677V30.9657C52.7852 30.7796 52.9345 30.6346 53.125 30.5307C53.3197 30.4225 53.534 30.3684 53.7677 30.3684C54.153 30.3684 54.456 30.4896 54.6767 30.732C54.8975 30.9744 55.0079 31.3358 55.0079 31.8163V33.6667H54.3261V31.8877C54.3261 31.2644 54.0772 30.9527 53.5795 30.9527C53.3197 30.9527 53.1033 31.0436 52.9302 31.2254C52.7614 31.4072 52.677 31.6669 52.677 32.0045V33.6667H51.9887ZM56.0782 29.836C55.9483 29.836 55.8401 29.797 55.7535 29.7191C55.6713 29.6369 55.6302 29.5351 55.6302 29.4139C55.6302 29.2927 55.6713 29.1932 55.7535 29.1153C55.8401 29.033 55.9483 28.9919 56.0782 28.9919C56.208 28.9919 56.3141 29.033 56.3963 29.1153C56.4829 29.1932 56.5262 29.2927 56.5262 29.4139C56.5262 29.5351 56.4829 29.6369 56.3963 29.7191C56.3141 29.797 56.208 29.836 56.0782 29.836ZM55.734 33.6667V30.4463H56.4223V33.6667H55.734ZM58.4865 33.7446C58.0796 33.7446 57.7442 33.645 57.4801 33.4459C57.2161 33.2468 57.0646 32.9828 57.0256 32.6538H57.7204C57.755 32.801 57.8372 32.9287 57.9671 33.0369C58.0969 33.1408 58.2679 33.1927 58.48 33.1927C58.6878 33.1927 58.8393 33.1494 58.9345 33.0629C59.0297 32.9763 59.0774 32.8767 59.0774 32.7642C59.0774 32.5997 59.0103 32.4893 58.8761 32.4331C58.7462 32.3725 58.5644 32.3184 58.3307 32.2707C58.1489 32.2318 57.9671 32.1798 57.7853 32.1149C57.6078 32.05 57.4585 31.9591 57.3373 31.8422C57.2204 31.721 57.162 31.5587 57.162 31.3553C57.162 31.0739 57.2702 30.8402 57.4866 30.654C57.7031 30.4636 58.006 30.3684 58.3956 30.3684C58.7549 30.3684 59.0449 30.4549 59.2656 30.6281C59.4907 30.8012 59.6227 31.0458 59.6617 31.3618H58.9994C58.9778 31.2232 58.9129 31.115 58.8047 31.0371C58.7008 30.9592 58.5601 30.9203 58.3826 30.9203C58.2095 30.9203 58.0753 30.957 57.9801 31.0306C57.8848 31.0999 57.8372 31.1908 57.8372 31.3033C57.8372 31.4159 57.9022 31.5046 58.032 31.5695C58.1662 31.6345 58.3415 31.6929 58.5579 31.7448C58.7744 31.7924 58.9735 31.8487 59.1553 31.9136C59.3414 31.9742 59.4907 32.0651 59.6033 32.1863C59.7158 32.3075 59.7721 32.485 59.7721 32.7187C59.7764 33.0131 59.6617 33.2576 59.428 33.4524C59.1985 33.6472 58.8847 33.7446 58.4865 33.7446ZM61.8996 33.6667V30.4463H62.5099L62.5683 30.9008C62.6722 30.7363 62.8086 30.6064 62.9774 30.5112C63.1505 30.416 63.3496 30.3684 63.5747 30.3684C64.0855 30.3684 64.4404 30.5696 64.6395 30.9722C64.7564 30.7861 64.9122 30.6389 65.107 30.5307C65.3061 30.4225 65.5204 30.3684 65.7498 30.3684C66.1523 30.3684 66.4683 30.4896 66.6977 30.732C66.9271 30.9744 67.0418 31.3358 67.0418 31.8163V33.6667H66.3536V31.8877C66.3536 31.2644 66.1155 30.9527 65.6394 30.9527C65.397 30.9527 65.1979 31.0436 65.0421 31.2254C64.8906 31.4072 64.8148 31.6669 64.8148 32.0045V33.6667H64.1266V31.8877C64.1266 31.2644 63.8864 30.9527 63.4059 30.9527C63.1678 30.9527 62.9709 31.0436 62.815 31.2254C62.6635 31.4072 62.5878 31.6669 62.5878 32.0045V33.6667H61.8996ZM69.2235 33.7446C68.9162 33.7446 68.6391 33.6753 68.3924 33.5368C68.15 33.394 67.9574 33.197 67.8146 32.946C67.6717 32.6906 67.6003 32.3941 67.6003 32.0565C67.6003 31.7189 67.6717 31.4245 67.8146 31.1735C67.9617 30.9181 68.1587 30.7211 68.4054 30.5826C68.6521 30.4398 68.927 30.3684 69.23 30.3684C69.5373 30.3684 69.8122 30.4398 70.0546 30.5826C70.3013 30.7211 70.4961 30.9181 70.6389 31.1735C70.7861 31.4245 70.8597 31.7189 70.8597 32.0565C70.8597 32.3941 70.7861 32.6906 70.6389 32.946C70.4961 33.197 70.3013 33.394 70.0546 33.5368C69.8078 33.6753 69.5308 33.7446 69.2235 33.7446ZM69.2235 33.1538C69.388 33.1538 69.5395 33.1126 69.678 33.0304C69.8208 32.9482 69.9355 32.827 70.0221 32.6668C70.1087 32.5023 70.152 32.2989 70.152 32.0565C70.152 31.8141 70.1087 31.6128 70.0221 31.4527C69.9399 31.2882 69.8273 31.1648 69.6845 31.0826C69.546 31.0003 69.3945 30.9592 69.23 30.9592C69.0655 30.9592 68.9118 31.0003 68.769 31.0826C68.6305 31.1648 68.5179 31.2882 68.4314 31.4527C68.3448 31.6128 68.3015 31.8141 68.3015 32.0565C68.3015 32.2989 68.3448 32.5023 68.4314 32.6668C68.5179 32.827 68.6305 32.9482 68.769 33.0304C68.9075 33.1126 69.059 33.1538 69.2235 33.1538ZM71.4741 33.6667V30.4463H72.0844L72.1364 31.0112C72.2359 30.812 72.3809 30.6562 72.5714 30.5437C72.7662 30.4268 72.9891 30.3684 73.2401 30.3684C73.6297 30.3684 73.9348 30.4896 74.1556 30.732C74.3807 30.9744 74.4932 31.3358 74.4932 31.8163V33.6667H73.8115V31.8877C73.8115 31.2644 73.5561 30.9527 73.0453 30.9527C72.79 30.9527 72.5779 31.0436 72.4091 31.2254C72.2446 31.4072 72.1623 31.6669 72.1623 32.0045V33.6667H71.4741ZM76.5244 33.6667C76.2085 33.6667 75.9574 33.5909 75.7713 33.4394C75.5852 33.2836 75.4921 33.0088 75.4921 32.6149V31.0241H74.9402V30.4463H75.4921L75.5765 29.6282H76.1803V30.4463H77.0893V31.0241H76.1803V32.6149C76.1803 32.7923 76.2171 32.9157 76.2907 32.9849C76.3686 33.0499 76.5006 33.0823 76.6868 33.0823H77.0569V33.6667H76.5244ZM77.6691 33.6667V28.9919H78.3573V30.9657C78.4655 30.7796 78.6149 30.6346 78.8053 30.5307C79.0001 30.4225 79.2144 30.3684 79.4481 30.3684C79.8333 30.3684 80.1363 30.4896 80.3571 30.732C80.5778 30.9744 80.6882 31.3358 80.6882 31.8163V33.6667H80.0065V31.8877C80.0065 31.2644 79.7576 30.9527 79.2598 30.9527C79.0001 30.9527 78.7837 31.0436 78.6105 31.2254C78.4417 31.4072 78.3573 31.6669 78.3573 32.0045V33.6667H77.6691Z" fill="#A3AED0"/>
<path d="M35.9028 58.5556V56.8296C34.4534 56.6652 33.2728 56.1572 32.3613 55.3054C31.4498 54.4537 30.9791 53.3105 30.9492 51.876H33.9752C34.0051 52.4737 34.1844 52.9967 34.5131 53.445C34.8568 53.8933 35.3201 54.1996 35.9028 54.364V49.6345C35.7684 49.5897 35.6264 49.5448 35.477 49.5C35.3425 49.4552 35.2005 49.4103 35.0511 49.3655C33.8407 48.9471 32.9142 48.4091 32.2717 47.7516C31.644 47.0941 31.3302 46.22 31.3302 45.1291C31.3153 43.844 31.7337 42.8129 32.5855 42.0359C33.4372 41.2439 34.543 40.7881 35.9028 40.6686V38.853H37.4046V40.691C38.7495 40.8255 39.8329 41.2962 40.6548 42.1031C41.4916 42.8951 41.9324 43.9187 41.9772 45.1739H38.9064C38.8915 44.7406 38.7495 44.3446 38.4805 43.986C38.2265 43.6124 37.8679 43.3509 37.4046 43.2014V47.3706C37.5242 47.4154 37.6437 47.4603 37.7633 47.5051C37.8828 47.535 38.0024 47.5723 38.1219 47.6172C38.8989 47.8861 39.6087 48.1999 40.2513 48.5586C40.8939 48.9172 41.4094 49.3954 41.7979 49.9931C42.1864 50.5759 42.3807 51.3305 42.3807 52.257C42.3807 53.0341 42.1864 53.7588 41.7979 54.4312C41.4243 55.1037 40.864 55.664 40.1168 56.1123C39.3846 56.5457 38.4805 56.7923 37.4046 56.852V58.5556H35.9028ZM34.3338 44.9274C34.3338 45.4056 34.4758 45.7941 34.7597 46.093C35.0436 46.3769 35.4247 46.6234 35.9028 46.8326V43.1118C35.4396 43.2015 35.0586 43.4032 34.7597 43.717C34.4758 44.0308 34.3338 44.4343 34.3338 44.9274ZM39.3323 52.4587C39.3323 51.861 39.153 51.3903 38.7943 51.0466C38.4357 50.7029 37.9725 50.4115 37.4046 50.1724V54.4312C38.0024 54.3416 38.4731 54.1249 38.8168 53.7812C39.1605 53.4375 39.3323 52.9967 39.3323 52.4587ZM50.3308 56.8744C49.1503 56.8744 48.1565 56.6578 47.3496 56.2244C46.5427 55.7911 45.8926 55.2083 45.3995 54.4761C44.9064 53.7439 44.5478 52.9295 44.3236 52.0329C44.1144 51.1363 44.0098 50.2173 44.0098 49.2758C44.0098 47.5275 44.2564 46.0108 44.7495 44.7257C45.2426 43.4256 45.9524 42.4244 46.8789 41.7221C47.8054 41.0048 48.9261 40.6462 50.2411 40.6462C51.317 40.6462 52.2285 40.8628 52.9757 41.2962C53.7378 41.7146 54.3281 42.2675 54.7465 42.9549C55.1649 43.6423 55.4114 44.382 55.4862 45.1739H52.8188C52.6843 44.4866 52.3929 43.9561 51.9446 43.5825C51.4963 43.2089 50.921 43.0221 50.2187 43.0221C49.2175 43.0221 48.4106 43.4854 47.7979 44.4118C47.1852 45.3234 46.8565 46.7206 46.8116 48.6034C47.1703 47.9907 47.7082 47.4827 48.4255 47.0792C49.1428 46.6757 49.9422 46.474 50.8239 46.474C51.6906 46.474 52.505 46.6832 53.2671 47.1016C54.0292 47.52 54.6419 48.1103 55.1051 48.8724C55.5833 49.6345 55.8224 50.5311 55.8224 51.5622C55.8224 52.5036 55.5908 53.3777 55.1275 54.1847C54.6792 54.9916 54.0367 55.6416 53.1998 56.1348C52.378 56.6279 51.4216 56.8744 50.3308 56.8744ZM50.1739 54.4088C51.0107 54.4088 51.6981 54.1548 52.236 53.6467C52.7889 53.1237 53.0654 52.4662 53.0654 51.6742C53.0654 50.8374 52.7889 50.165 52.236 49.6569C51.6831 49.1488 50.9808 48.8948 50.129 48.8948C49.5761 48.8948 49.0755 49.0218 48.6272 49.2758C48.1939 49.5149 47.8502 49.8437 47.5962 50.2621C47.3421 50.6656 47.2151 51.1213 47.2151 51.6294C47.2151 52.4363 47.4916 53.1013 48.0445 53.6243C48.6123 54.1473 49.3221 54.4088 50.1739 54.4088ZM63.7301 56.8744C62.6541 56.8744 61.6828 56.6877 60.8161 56.3141C59.9494 55.9256 59.2546 55.3801 58.7316 54.6778C58.2235 53.9755 57.9695 53.1611 57.9695 52.2346C57.9695 51.2782 58.216 50.4414 58.7091 49.7241C59.2172 49.0069 59.8822 48.4913 60.7041 48.1775C59.9868 47.8637 59.4189 47.4154 59.0005 46.8326C58.5821 46.2349 58.3729 45.5699 58.3729 44.8377C58.3729 44.0906 58.5747 43.4032 58.9781 42.7756C59.3816 42.133 59.9793 41.6175 60.7713 41.229C61.5782 40.8404 62.5645 40.6462 63.7301 40.6462C64.8956 40.6462 65.8744 40.8404 66.6664 41.229C67.4584 41.6175 68.0561 42.133 68.4596 42.7756C68.863 43.4032 69.0648 44.0906 69.0648 44.8377C69.0648 45.555 68.8481 46.22 68.4147 46.8326C67.9963 47.4304 67.436 47.8787 66.7336 48.1775C67.5704 48.4913 68.2354 49.0069 68.7285 49.7241C69.2217 50.4414 69.4682 51.2782 69.4682 52.2346C69.4682 53.1611 69.2142 53.9755 68.7061 54.6778C68.1981 55.3801 67.5032 55.9256 66.6216 56.3141C65.7548 56.6877 64.791 56.8744 63.7301 56.8744ZM63.7301 47.3258C64.5071 47.3258 65.1198 47.124 65.5681 46.7206C66.0164 46.3171 66.2405 45.8016 66.2405 45.1739C66.2405 44.4866 66.0164 43.9486 65.5681 43.5601C65.1347 43.1716 64.522 42.9773 63.7301 42.9773C62.9231 42.9773 62.303 43.1716 61.8696 43.5601C61.4363 43.9486 61.2196 44.4866 61.2196 45.1739C61.2196 45.8165 61.4363 46.3395 61.8696 46.743C62.3179 47.1315 62.9381 47.3258 63.7301 47.3258ZM63.7301 54.4761C64.6864 54.4761 65.4112 54.2444 65.9043 53.7812C66.3974 53.303 66.644 52.7053 66.644 51.988C66.644 51.196 66.3825 50.5759 65.8595 50.1276C65.3514 49.6793 64.6416 49.4552 63.7301 49.4552C62.8185 49.4552 62.0938 49.6793 61.5558 50.1276C61.0328 50.5759 60.7713 51.196 60.7713 51.988C60.7713 52.7053 61.0179 53.303 61.511 53.7812C62.0191 54.2444 62.7587 54.4761 63.7301 54.4761ZM71.264 56.6055V54.5209C72.2204 53.7289 73.1469 52.9444 74.0435 52.1673C74.955 51.3903 75.7619 50.6207 76.4643 49.8586C77.1815 49.0965 77.7494 48.3568 78.1678 47.6396C78.6011 46.9074 78.8178 46.1976 78.8178 45.5102C78.8178 44.8676 78.6385 44.2998 78.2798 43.8066C77.9362 43.3135 77.3608 43.067 76.5539 43.067C75.732 43.067 75.1119 43.3359 74.6935 43.8739C74.2751 44.4118 74.0659 45.0619 74.0659 45.824H71.2864C71.3163 44.6734 71.5704 43.717 72.0485 42.9549C72.5267 42.1778 73.1618 41.6025 73.9538 41.229C74.7458 40.8404 75.6349 40.6462 76.6212 40.6462C78.2201 40.6462 79.4604 41.087 80.342 41.9686C81.2386 42.8353 81.6869 43.9636 81.6869 45.3533C81.6869 46.22 81.4852 47.0643 81.0817 47.8861C80.6932 48.708 80.1776 49.5 79.5351 50.2621C78.8925 51.0242 78.1977 51.7415 77.4505 52.4139C76.7033 53.0714 75.9786 53.6841 75.2763 54.2519H82.0679V56.6055H71.264ZM85.1677 56.7624C84.6446 56.7624 84.2113 56.598 83.8676 56.2692C83.5388 55.9405 83.3745 55.5445 83.3745 55.0813C83.3745 54.6031 83.5388 54.1996 83.8676 53.8709C84.2113 53.5421 84.6446 53.3777 85.1677 53.3777C85.6907 53.3777 86.1165 53.5421 86.4453 53.8709C86.789 54.1996 86.9608 54.6031 86.9608 55.0813C86.9608 55.5445 86.789 55.9405 86.4453 56.2692C86.1165 56.598 85.6907 56.7624 85.1677 56.7624ZM94.5647 56.8744C93.4141 56.8744 92.4203 56.6727 91.5835 56.2692C90.7616 55.8658 90.1116 55.3129 89.6334 54.6106C89.1702 53.8933 88.9012 53.0864 88.8265 52.1898H91.6284C91.7628 52.8323 92.0916 53.3703 92.6146 53.8036C93.1376 54.222 93.7876 54.4312 94.5647 54.4312C95.4015 54.4312 96.0814 54.1249 96.6044 53.5122C97.1424 52.8996 97.4114 52.1375 97.4114 51.2259C97.4114 50.2845 97.1424 49.5374 96.6044 48.9845C96.0814 48.4316 95.4164 48.1551 94.6095 48.1551C93.9371 48.1551 93.3543 48.3195 92.8612 48.6482C92.368 48.977 92.0169 49.3879 91.8077 49.881H89.0507L90.3955 40.9151H99.0925V43.4256H92.5474L91.8301 47.0568C92.1588 46.6982 92.6071 46.4068 93.175 46.1826C93.7428 45.9435 94.3779 45.824 95.0802 45.824C96.201 45.824 97.1349 46.078 97.8821 46.5861C98.6292 47.0792 99.1971 47.7367 99.5856 48.5586C99.9741 49.3655 100.168 50.2472 100.168 51.2035C100.168 52.2944 99.9293 53.2657 99.4511 54.1174C98.9879 54.9692 98.3304 55.6416 97.4786 56.1348C96.6418 56.6279 95.6705 56.8744 94.5647 56.8744Z" fill="#1B2559"/>
<path d="M42.1992 73.2429C41.6798 73.2429 41.2246 73.1291 40.8338 72.9016C40.448 72.674 40.1438 72.3599 39.9211 71.9592C39.7035 71.5536 39.5947 71.0861 39.5947 70.5568C39.5947 70.0275 39.7035 69.5624 39.9211 69.1618C40.1438 68.7561 40.448 68.4395 40.8338 68.212C41.2246 67.9844 41.6798 67.8706 42.1992 67.8706C42.7137 67.8706 43.1663 67.9844 43.5571 68.212C43.9479 68.4395 44.2521 68.7561 44.4698 69.1618C44.6874 69.5624 44.7963 70.0275 44.7963 70.5568C44.7963 71.0861 44.6874 71.5536 44.4698 71.9592C44.2521 72.3599 43.9479 72.674 43.5571 72.9016C43.1663 73.1291 42.7137 73.2429 42.1992 73.2429ZM42.1992 72.3896C42.6939 72.3896 43.0871 72.2263 43.379 71.8998C43.6758 71.5733 43.8242 71.1257 43.8242 70.5568C43.8242 69.9879 43.6758 69.5402 43.379 69.2137C43.0871 68.8872 42.6939 68.724 42.1992 68.724C41.7045 68.724 41.3087 68.8872 41.0119 69.2137C40.7151 69.5402 40.5667 69.9879 40.5667 70.5568C40.5667 71.1257 40.7151 71.5733 41.0119 71.8998C41.3087 72.2263 41.7045 72.3896 42.1992 72.3896ZM45.4642 73.1539V69.4734H46.3027L46.3769 70.0967C46.4907 69.879 46.6539 69.7059 46.8667 69.5773C47.0843 69.4487 47.3391 69.3844 47.6309 69.3844C48.0861 69.3844 48.4398 69.5278 48.692 69.8147C48.9443 70.1017 49.0705 70.5221 49.0705 71.0762V73.1539H48.1207V71.1652C48.1207 70.8486 48.0564 70.6062 47.9278 70.438C47.7991 70.2699 47.5988 70.1858 47.3267 70.1858C47.0596 70.1858 46.8394 70.2797 46.6663 70.4677C46.4981 70.6557 46.414 70.9179 46.414 71.2543V73.1539H45.4642ZM53.0899 73.1539C52.704 73.1539 52.3949 73.0599 52.1624 72.8719C51.9299 72.6839 51.8136 72.35 51.8136 71.8702V70.2674H51.1829V69.4734H51.8136L51.9249 68.4865H52.7634V69.4734H53.7577V70.2674H52.7634V71.8776C52.7634 72.0557 52.8005 72.1793 52.8747 72.2486C52.9539 72.3129 53.0874 72.3451 53.2754 72.3451H53.7355V73.1539H53.0899ZM54.4248 73.1539V69.4734H55.2707L55.3598 70.1635C55.4933 69.926 55.6739 69.7381 55.9014 69.5996C56.1339 69.4561 56.406 69.3844 56.7177 69.3844V70.3861H56.4505C56.2428 70.3861 56.0573 70.4183 55.894 70.4826C55.7308 70.5469 55.6022 70.6582 55.5082 70.8165C55.4191 70.9748 55.3746 71.1949 55.3746 71.4769V73.1539H54.4248ZM58.4873 73.2429C58.1707 73.2429 57.911 73.1934 57.7082 73.0945C57.5053 72.9906 57.3545 72.8546 57.2555 72.6864C57.1566 72.5182 57.1071 72.3327 57.1071 72.1299C57.1071 71.7885 57.2407 71.5115 57.5078 71.2988C57.7749 71.0861 58.1756 70.9797 58.7099 70.9797H59.6449V70.8907C59.6449 70.6384 59.5731 70.4529 59.4297 70.3342C59.2862 70.2154 59.1081 70.1561 58.8954 70.1561C58.7025 70.1561 58.5343 70.2031 58.3908 70.2971C58.2474 70.3861 58.1583 70.5197 58.1237 70.6978H57.1962C57.2209 70.4306 57.3099 70.1981 57.4633 70.0002C57.6216 69.8024 57.8244 69.6515 58.0718 69.5476C58.3191 69.4388 58.5961 69.3844 58.9028 69.3844C59.4272 69.3844 59.8403 69.5155 60.142 69.7776C60.4438 70.0398 60.5947 70.4108 60.5947 70.8907V73.1539H59.7858L59.6968 72.5602C59.588 72.7581 59.4346 72.9214 59.2367 73.05C59.0438 73.1786 58.794 73.2429 58.4873 73.2429ZM58.7025 72.5009C58.9746 72.5009 59.1848 72.4118 59.3332 72.2338C59.4866 72.0557 59.583 71.8355 59.6226 71.5733H58.8138C58.5615 71.5733 58.3809 71.6203 58.2721 71.7143C58.1633 71.8034 58.1089 71.9147 58.1089 72.0482C58.1089 72.1917 58.1633 72.303 58.2721 72.3822C58.3809 72.4613 58.5244 72.5009 58.7025 72.5009ZM63.1558 73.2429C62.7798 73.2429 62.4484 73.1613 62.1614 72.998C61.8745 72.8348 61.647 72.6072 61.4788 72.3154C61.3155 72.0235 61.2339 71.6896 61.2339 71.3136C61.2339 70.9377 61.3155 70.6038 61.4788 70.3119C61.647 70.02 61.8745 69.7925 62.1614 69.6292C62.4484 69.466 62.7798 69.3844 63.1558 69.3844C63.6257 69.3844 64.0215 69.508 64.343 69.7554C64.6645 69.9978 64.8698 70.3342 64.9589 70.7645H63.9571C63.9077 70.5864 63.8087 70.4479 63.6603 70.349C63.5169 70.2451 63.3462 70.1932 63.1483 70.1932C62.8862 70.1932 62.6635 70.2921 62.4805 70.49C62.2975 70.6879 62.206 70.9624 62.206 71.3136C62.206 71.6649 62.2975 71.9394 62.4805 72.1373C62.6635 72.3352 62.8862 72.4341 63.1483 72.4341C63.3462 72.4341 63.5169 72.3846 63.6603 72.2857C63.8087 72.1868 63.9077 72.0458 63.9571 71.8627H64.9589C64.8698 72.2783 64.6645 72.6122 64.343 72.8645C64.0215 73.1168 63.6257 73.2429 63.1558 73.2429ZM65.6535 73.1539V67.8113H66.6033V70.9649L67.9093 69.4734H69.0372L67.5308 71.1504L69.282 73.1539H68.0948L66.6033 71.3062V73.1539H65.6535Z" fill="#05CD99"/>
<g clip-path="url(#clip5_54_1726)">
<rect x="29.9854" y="66.6899" width="6.95652" height="6.95652" rx="3.47826" fill="#05CD99"/>
<g clip-path="url(#clip6_54_1726)">
<path d="M32.8259 71.0611L32.0819 70.3172C31.999 70.2343 31.8672 70.2343 31.7843 70.3172C31.7014 70.4001 31.7014 70.5318 31.7843 70.6147L32.675 71.5054C32.7579 71.5883 32.8918 71.5883 32.9747 71.5054L35.2278 69.2544C35.3107 69.1715 35.3107 69.0397 35.2278 68.9568C35.1449 68.8739 35.0131 68.8739 34.9302 68.9568L32.8259 71.0611Z" fill="white"/>
</g>
</g>
<rect x="158.238" y="160.428" width="67.5145" height="7.37812" rx="3.68906" transform="rotate(-90 158.238 160.428)" fill="#BAC4FF"/>
<rect x="158.238" y="160.428" width="16.0996" height="7.37814" rx="3.68907" transform="rotate(-90 158.238 160.428)" fill="#6178FF"/>
<rect x="137.158" y="160.428" width="67.5145" height="7.37807" rx="3.68904" transform="rotate(-90 137.158 160.428)" fill="#BAC4FF"/>
<rect x="137.158" y="160.428" width="61.2824" height="7.37812" rx="3.68906" transform="rotate(-90 137.158 160.428)" fill="#6178FF"/>
<rect x="116.077" y="160.428" width="67.5145" height="7.37811" rx="3.68906" transform="rotate(-90 116.077 160.428)" fill="#BAC4FF"/>
<rect x="116.077" y="160.428" width="46.7408" height="7.3781" rx="3.68905" transform="rotate(-90 116.077 160.428)" fill="#6178FF"/>
<rect x="94.9971" y="160.428" width="67.5145" height="7.37812" rx="3.68906" transform="rotate(-90 94.9971 160.428)" fill="#BAC4FF"/>
<rect x="94.9971" y="160.428" width="34.7959" height="7.37813" rx="3.68907" transform="rotate(-90 94.9971 160.428)" fill="#6178FF"/>
<rect x="73.917" y="160.428" width="67.5145" height="7.37812" rx="3.68906" transform="rotate(-90 73.917 160.428)" fill="#BAC4FF"/>
<rect x="73.917" y="160.428" width="55.5696" height="7.37813" rx="3.68906" transform="rotate(-90 73.917 160.428)" fill="#6178FF"/>
<rect x="52.8362" y="160.428" width="67.5145" height="7.37812" rx="3.68906" transform="rotate(-90 52.8362 160.428)" fill="#BAC4FF"/>
<rect x="52.8362" y="160.428" width="28.0445" height="7.37813" rx="3.68907" transform="rotate(-90 52.8362 160.428)" fill="#6178FF"/>
<rect x="31.7559" y="160.428" width="67.5145" height="7.37812" rx="3.68906" transform="rotate(-90 31.7559 160.428)" fill="#BAC4FF"/>
<rect x="31.7559" y="160.428" width="39.9893" height="7.37813" rx="3.68906" transform="rotate(-90 31.7559 160.428)" fill="#6178FF"/>
</g>
<defs>
<filter id="filter0_d_54_1726" x="205.2" y="19.2" width="195.919" height="193.6" filterUnits="userSpaceOnUse" color-interpolation-filters="sRGB">
<feFlood flood-opacity="0" result="BackgroundImageFix"/>
<feColorMatrix in="SourceAlpha" type="matrix" values="0 0 0 0 0 0 0 0 0 0 0 0 0 0 0 0 0 0 127 0" result="hardAlpha"/>
<feMorphology radius="7" operator="erode" in="SourceAlpha" result="effect1_dropShadow_54_1726"/>
<feOffset dy="4"/>
<feGaussianBlur stdDeviation="11.9"/>
<feComposite in2="hardAlpha" operator="out"/>
<feColorMatrix type="matrix" values="0 0 0 0 0.168627 0 0 0 0 0.403922 0 0 0 0 0.909804 0 0 0 0.32 0"/>
<feBlend mode="normal" in2="BackgroundImageFix" result="effect1_dropShadow_54_1726"/>
<feBlend mode="normal" in="SourceGraphic" in2="effect1_dropShadow_54_1726" result="shape"/>
</filter>
<filter id="filter1_d_54_1726" x="410.2" y="0.200001" width="195.919" height="193.6" filterUnits="userSpaceOnUse" color-interpolation-filters="sRGB">
<feFlood flood-opacity="0" result="BackgroundImageFix"/>
<feColorMatrix in="SourceAlpha" type="matrix" values="0 0 0 0 0 0 0 0 0 0 0 0 0 0 0 0 0 0 127 0" result="hardAlpha"/>
<feMorphology radius="7" operator="erode" in="SourceAlpha" result="effect1_dropShadow_54_1726"/>
<feOffset dy="4"/>
<feGaussianBlur stdDeviation="11.9"/>
<feComposite in2="hardAlpha" operator="out"/>
<feColorMatrix type="matrix" values="0 0 0 0 0.0196078 0 0 0 0 0.803922 0 0 0 0 0.6 0 0 0 0.32 0"/>
<feBlend mode="normal" in2="BackgroundImageFix" result="effect1_dropShadow_54_1726"/>
<feBlend mode="normal" in="SourceGraphic" in2="effect1_dropShadow_54_1726" result="shape"/>
</filter>
<filter id="filter2_d_54_1726" x="0.200001" y="2.2" width="195.919" height="193.6" filterUnits="userSpaceOnUse" color-interpolation-filters="sRGB">
<feFlood flood-opacity="0" result="BackgroundImageFix"/>
<feColorMatrix in="SourceAlpha" type="matrix" values="0 0 0 0 0 0 0 0 0 0 0 0 0 0 0 0 0 0 127 0" result="hardAlpha"/>
<feMorphology radius="7" operator="erode" in="SourceAlpha" result="effect1_dropShadow_54_1726"/>
<feOffset dy="4"/>
<feGaussianBlur stdDeviation="11.9"/>
<feComposite in2="hardAlpha" operator="out"/>
<feColorMatrix type="matrix" values="0 0 0 0 0.168627 0 0 0 0 0.403922 0 0 0 0 0.909804 0 0 0 0.32 0"/>
<feBlend mode="normal" in2="BackgroundImageFix" result="effect1_dropShadow_54_1726"/>
<feBlend mode="normal" in="SourceGraphic" in2="effect1_dropShadow_54_1726" result="shape"/>
</filter>
<linearGradient id="paint0_linear_54_1726" x1="299.477" y1="118.493" x2="299.477" y2="202.935" gradientUnits="userSpaceOnUse">
<stop stop-color="#E9E3FF"/>
<stop offset="0.72165" stop-color="#E9E3FF" stop-opacity="0"/>
</linearGradient>
<linearGradient id="paint1_linear_54_1726" x1="505.461" y1="83.9208" x2="505.461" y2="175.52" gradientUnits="userSpaceOnUse">
<stop stop-color="#01B574" stop-opacity="0.14"/>
<stop offset="1" stop-color="#01B574" stop-opacity="0"/>
</linearGradient>
<linearGradient id="paint2_linear_54_1726" x1="587.712" y1="100.981" x2="437.073" y2="181.702" gradientUnits="userSpaceOnUse">
<stop stop-color="#01B574"/>
<stop offset="1" stop-color="#01B574" stop-opacity="0"/>
</linearGradient>
<clipPath id="clip0_54_1726">
<rect x="222" y="32" width="162.319" height="160" rx="11.2074" fill="white"/>
</clipPath>
<clipPath id="clip1_54_1726">
<rect width="11.1304" height="11.1304" fill="white" transform="translate(361.131 43.5943)"/>
</clipPath>
<clipPath id="clip2_54_1726">
<rect x="427" y="13" width="162.319" height="160" rx="11.2074" fill="white"/>
</clipPath>
<clipPath id="clip3_54_1726">
<rect width="8.34783" height="8.34783" fill="white" transform="translate(548.985 24.4929)"/>
</clipPath>
<clipPath id="clip4_54_1726">
<rect width="8.34783" height="8.34783" fill="white" transform="translate(139.435 26.1303)"/>
</clipPath>
<clipPath id="clip5_54_1726">
<rect x="29.9854" y="66.6899" width="6.95652" height="6.95652" rx="3.47826" fill="white"/>
</clipPath>
<clipPath id="clip6_54_1726">
<rect width="5.10145" height="5.10145" fill="white" transform="translate(30.9128 67.6176)"/>
</clipPath>
</defs>
</svg>
