<svg width="234" height="49" viewBox="0 0 234 49" fill="none" xmlns="http://www.w3.org/2000/svg">
<g clip-path="url(#clip0_70_1953)">
<path d="M24.5341 1.50042C24.5341 0.646483 23.8415 -0.0508424 22.9897 0.00291336C20.2961 0.172894 17.6454 0.786637 15.1454 1.82266C12.1687 3.05621 9.46408 4.86423 7.18588 7.14352C4.90767 9.42281 3.1005 12.1287 1.86755 15.1067C0.634593 18.0848 -2.81664e-07 21.2766 0 24.5C2.81665e-07 27.7234 0.634594 30.9152 1.86755 33.8933C3.1005 36.8713 4.90767 39.5772 7.18588 41.8565C9.46409 44.1358 12.1687 45.9438 15.1454 47.1773C17.6454 48.2134 20.2961 48.8271 22.9897 48.9971C23.8415 49.0509 24.5341 48.3535 24.5341 47.4995V1.50042Z" fill="url(#paint0_linear_70_1953)"/>
<path d="M37.6704 6.5255C37.6704 5.67157 36.9771 4.97268 36.1266 5.04296C31.6195 5.41535 27.3679 7.40919 24.147 10.6968C20.5603 14.3576 18.5454 19.3228 18.5454 24.5C18.5454 29.6771 20.5603 34.6423 24.147 38.3032C27.3679 41.5907 31.6195 43.5846 36.1266 43.957C36.9771 44.0272 37.6704 43.3284 37.6704 42.4744V6.5255Z" fill="url(#paint1_linear_70_1953)"/>
<path d="M67.3469 29.5667L64.5998 32.2783V37.2986H58.886V10.1084H64.5998V25.4991L72.9509 17.5839H79.7634L71.559 25.9389L80.496 37.2986H73.5734L67.3469 29.5667Z" fill="black"/>
<path d="M102.206 17.5842V37.2989H96.7482V35.027C95.3319 36.7371 93.2808 37.5921 90.5948 37.5921C88.7391 37.5921 87.0542 37.1768 85.5403 36.3462C84.0508 35.5156 82.8788 34.3308 82.0242 32.7918C81.1695 31.2526 80.7422 29.4693 80.7422 27.4416C80.7422 25.414 81.1695 23.6305 82.0242 22.0915C82.8788 20.5524 84.0508 19.3675 85.5403 18.537C87.0542 17.7064 88.7391 17.291 90.5948 17.291C93.1099 17.291 95.0756 18.0851 96.4919 19.673V17.5842H102.206ZM91.5837 32.9016C93.0245 32.9016 94.221 32.4131 95.1732 31.4358C96.1255 30.4342 96.6017 29.1029 96.6017 27.4416C96.6017 25.7804 96.1255 24.4612 95.1732 23.4839C94.221 22.4824 93.0245 21.9815 91.5837 21.9815C90.1187 21.9815 88.91 22.4824 87.9577 23.4839C87.0054 24.4612 86.5292 25.7804 86.5292 27.4416C86.5292 29.1029 87.0054 30.4342 87.9577 31.4358C88.91 32.4131 90.1187 32.9016 91.5837 32.9016Z" fill="black"/>
<path d="M119.473 17.291C121.915 17.291 123.88 18.024 125.37 19.4898C126.884 20.9555 127.641 23.1298 127.641 26.0125V37.2989H121.927V26.8919C121.927 25.3284 121.585 24.168 120.901 23.4107C120.218 22.629 119.229 22.2381 117.935 22.2381C116.494 22.2381 115.346 22.69 114.492 23.5939C113.637 24.4733 113.21 25.7927 113.21 27.5515V37.2989H107.496V17.5842H112.953V19.8928C113.71 19.0622 114.65 18.427 115.774 17.9874C116.897 17.5231 118.13 17.291 119.473 17.291Z" fill="black"/>
<path d="M153.033 17.5842V37.2989H147.575V35.027C146.159 36.7371 144.109 37.5921 141.422 37.5921C139.566 37.5921 137.882 37.1768 136.368 36.3462C134.878 35.5156 133.706 34.3308 132.852 32.7918C131.997 31.2526 131.57 29.4693 131.57 27.4416C131.57 25.414 131.997 23.6305 132.852 22.0915C133.706 20.5524 134.878 19.3675 136.368 18.537C137.882 17.7064 139.566 17.291 141.422 17.291C143.937 17.291 145.903 18.0851 147.319 19.673V17.5842H153.033ZM142.411 32.9016C143.852 32.9016 145.049 32.4131 146.001 31.4358C146.953 30.4342 147.43 29.1029 147.43 27.4416C147.43 25.7804 146.953 24.4612 146.001 23.4839C145.049 22.4824 143.852 21.9815 142.411 21.9815C140.946 21.9815 139.738 22.4824 138.785 23.4839C137.833 24.4612 137.357 25.7804 137.357 27.4416C137.357 29.1029 137.833 30.4342 138.785 31.4358C139.738 32.4131 140.946 32.9016 142.411 32.9016Z" fill="black"/>
<path d="M164.733 37.4818C162.999 37.4818 161.656 36.9933 160.704 36.016C159.776 35.0389 159.312 33.6831 159.312 31.9485V10.1084H161.913V31.7287C161.913 32.8769 162.181 33.7563 162.718 34.367C163.256 34.9534 164.061 35.2466 165.136 35.2466C165.819 35.2466 166.405 35.1366 166.894 34.9168L167.077 37.0788C166.32 37.3475 165.539 37.4818 164.733 37.4818Z" fill="black"/>
<path d="M187.838 18.024V37.299H185.347V33.488C184.566 34.7827 183.528 35.7722 182.234 36.4562C180.965 37.1403 179.524 37.4822 177.912 37.4822C176.105 37.4822 174.469 37.0669 173.005 36.2364C171.54 35.4057 170.391 34.2453 169.562 32.7551C168.732 31.2649 168.315 29.5671 168.315 27.6615C168.315 25.756 168.732 24.0581 169.562 22.568C170.391 21.0777 171.54 19.9296 173.005 19.1234C174.469 18.2927 176.105 17.8774 177.912 17.8774C179.475 17.8774 180.879 18.2072 182.124 18.8668C183.395 19.5021 184.432 20.4426 185.238 21.6884V18.024H187.838ZM178.133 35.1736C179.475 35.1736 180.683 34.8683 181.758 34.2576C182.857 33.6224 183.712 32.7307 184.323 31.5825C184.957 30.4342 185.275 29.1273 185.275 27.6615C185.275 26.1957 184.957 24.8888 184.323 23.7406C183.712 22.5923 182.857 21.7129 181.758 21.1022C180.683 20.467 179.475 20.1494 178.133 20.1494C176.765 20.1494 175.531 20.467 174.432 21.1022C173.359 21.7129 172.504 22.5923 171.869 23.7406C171.258 24.8888 170.953 26.1957 170.953 27.6615C170.953 29.1273 171.258 30.4342 171.869 31.5825C172.504 32.7307 173.359 33.6224 174.432 34.2576C175.531 34.8683 176.765 35.1736 178.133 35.1736Z" fill="black"/>
<path d="M205.007 17.877C206.814 17.877 208.449 18.2923 209.914 19.123C211.379 19.9292 212.528 21.0773 213.358 22.5676C214.187 24.0577 214.602 25.7556 214.602 27.6611C214.602 29.5667 214.187 31.2645 213.358 32.7547C212.528 34.2449 211.379 35.4053 209.914 36.236C208.449 37.0665 206.814 37.4818 205.007 37.4818C203.395 37.4818 201.942 37.1399 200.648 36.4558C199.379 35.7718 198.353 34.7823 197.571 33.4876V37.2986H195.081V10.1084H197.681V21.688C198.486 20.4422 199.512 19.5017 200.758 18.8664C202.028 18.2068 203.444 17.877 205.007 17.877ZM204.823 35.1732C206.166 35.1732 207.388 34.8679 208.486 34.2572C209.585 33.622 210.439 32.7303 211.05 31.5821C211.684 30.4338 212.003 29.1269 212.003 27.6611C212.003 26.1953 211.684 24.8884 211.05 23.7402C210.439 22.5919 209.585 21.7125 208.486 21.1018C207.388 20.4665 206.166 20.149 204.823 20.149C203.456 20.149 202.223 20.4665 201.124 21.1018C200.049 21.7125 199.195 22.5919 198.56 23.7402C197.95 24.8884 197.644 26.1953 197.644 27.6611C197.644 29.1269 197.95 30.4338 198.56 31.5821C199.195 32.7303 200.049 33.622 201.124 34.2572C202.223 34.8679 203.456 35.1732 204.823 35.1732Z" fill="black"/>
<path d="M225.069 37.4822C223.505 37.4822 222.003 37.2624 220.564 36.8226C219.148 36.3585 218.036 35.7844 217.231 35.1004L218.402 33.0482C219.208 33.6835 220.221 34.2087 221.443 34.624C222.663 35.0149 223.933 35.2102 225.252 35.2102C227.01 35.2102 228.304 34.9416 229.134 34.4042C229.989 33.8422 230.417 33.0605 230.417 32.0589C230.417 31.3504 230.184 30.8008 229.72 30.4099C229.256 29.9946 228.67 29.6892 227.962 29.4937C227.254 29.2739 226.313 29.0662 225.142 28.8709C223.579 28.5777 222.322 28.2845 221.37 27.9913C220.417 27.6738 219.6 27.1485 218.915 26.4156C218.255 25.6827 217.926 24.6688 217.926 23.3742C217.926 21.7618 218.598 20.4426 219.941 19.4164C221.284 18.3904 223.152 17.8774 225.545 17.8774C226.79 17.8774 228.036 18.0484 229.281 18.3904C230.525 18.708 231.551 19.1355 232.358 19.673L231.222 21.7618C229.634 20.6624 227.742 20.1128 225.545 20.1128C223.885 20.1128 222.627 20.406 221.772 20.9922C220.942 21.5786 220.527 22.348 220.527 23.3008C220.527 24.0337 220.759 24.62 221.223 25.0598C221.711 25.4995 222.31 25.8293 223.017 26.0491C223.726 26.2446 224.703 26.4523 225.947 26.6721C227.486 26.9653 228.719 27.2585 229.647 27.5515C230.574 27.8447 231.369 28.3456 232.027 29.0541C232.687 29.7625 233.016 30.7397 233.016 31.9856C233.016 33.6712 232.309 35.0149 230.893 36.0164C229.501 36.9937 227.56 37.4822 225.069 37.4822Z" fill="black"/>
</g>
<defs>
<linearGradient id="paint0_linear_70_1953" x1="-0.297512" y1="54.2042" x2="38.1247" y2="-6.16321" gradientUnits="userSpaceOnUse">
<stop stop-color="#0194FF"/>
<stop offset="1" stop-color="#1FF8D1"/>
</linearGradient>
<linearGradient id="paint1_linear_70_1953" x1="18.3135" y1="48.0958" x2="49.0747" y2="0.667651" gradientUnits="userSpaceOnUse">
<stop stop-color="#0194FF"/>
<stop offset="1" stop-color="#1FF8D1"/>
</linearGradient>
<clipPath id="clip0_70_1953">
<rect width="234" height="49" fill="white"/>
</clipPath>
</defs>
</svg>
