<svg width="239" height="46" viewBox="0 0 239 46" fill="none" xmlns="http://www.w3.org/2000/svg">
<path fill-rule="evenodd" clip-rule="evenodd" d="M23.2651 44.8781C35.6883 44.8781 45.7593 34.8317 45.7593 22.439C45.7593 10.0463 35.6883 0 23.2651 0C10.8419 0 0.770996 10.0463 0.770996 22.439C0.770996 34.8317 10.8419 44.8781 23.2651 44.8781ZM30.2826 10.453C30.6241 9.24269 29.4467 8.52697 28.3713 9.29122L13.36 19.9591C12.1938 20.7879 12.3772 22.439 13.6355 22.439H17.5884V22.4084H25.2924L19.015 24.618L16.2477 34.425C15.9062 35.6354 17.0836 36.351 18.1589 35.5868L33.1703 24.9191C34.3365 24.0904 34.153 22.439 32.8948 22.439H26.9003L30.2826 10.453Z" fill="black"/>
<path d="M64.5398 28.1995H72.362V32.0451H60.4968V11.6519H64.5398V28.1995Z" fill="black"/>
<path d="M77.3904 26.3058C77.8981 28.1316 79.2751 29.0444 81.5212 29.0444C82.9665 29.0444 84.0603 28.5589 84.8024 27.5877L87.8493 29.3357C86.4041 31.414 84.2751 32.453 81.4626 32.453C79.0407 32.453 77.0974 31.7246 75.6326 30.268C74.1677 28.8113 73.4353 26.9759 73.4353 24.7618C73.4353 22.5671 74.158 20.7414 75.6033 19.2847C77.0485 17.8087 78.9041 17.0706 81.1696 17.0706C83.318 17.0706 85.0857 17.8087 86.4724 19.2847C87.8786 20.7608 88.5817 22.5866 88.5817 24.7618C88.5817 25.2474 88.5329 25.7621 88.4353 26.3058H77.3904ZM77.3318 23.3925H84.8024C84.5877 22.402 84.1383 21.664 83.4548 21.1784C82.7907 20.6929 82.029 20.45 81.1696 20.45C80.154 20.45 79.3142 20.7122 78.6501 21.2366C77.986 21.7417 77.5466 22.4602 77.3318 23.3925Z" fill="black"/>
<path d="M100.286 17.4785H104.446L98.8801 32.0452H94.5735L89.0071 17.4785H93.1672L96.7121 27.6752L100.286 17.4785Z" fill="black"/>
<path d="M108.144 15.7305C107.519 15.7305 106.972 15.5073 106.503 15.0605C106.054 14.5944 105.83 14.0506 105.83 13.4291C105.83 12.8075 106.054 12.2637 106.503 11.7976C106.972 11.3315 107.519 11.0984 108.144 11.0984C108.789 11.0984 109.335 11.3315 109.785 11.7976C110.253 12.2637 110.488 12.8075 110.488 13.4291C110.488 14.0506 110.253 14.5944 109.785 15.0605C109.335 15.5073 108.789 15.7305 108.144 15.7305ZM106.269 32.0452V17.4785H110.048V32.0452H106.269Z" fill="black"/>
<path d="M121.886 21.091H118.576V27.1508C118.576 27.6559 118.703 28.0248 118.957 28.2578C119.21 28.4909 119.582 28.6269 120.07 28.6657C120.558 28.6852 121.164 28.6755 121.886 28.6366V32.0452C119.289 32.3365 117.453 32.0938 116.378 31.3168C115.324 30.5401 114.796 29.1513 114.796 27.1508V21.091H112.248V17.4785H114.796V14.5361L118.576 13.3999V17.4785H121.886V21.091Z" fill="black"/>
<path d="M135.226 17.4784H139.005V32.0451H135.226V30.3262C134.093 31.7441 132.501 32.453 130.45 32.453C128.497 32.453 126.818 31.715 125.411 30.2388C124.025 28.7434 123.331 26.9176 123.331 24.7618C123.331 22.6059 124.025 20.79 125.411 19.3138C126.818 17.8184 128.497 17.0706 130.45 17.0706C132.501 17.0706 134.093 17.7796 135.226 19.1973V17.4784ZM128.253 27.7334C129.015 28.4908 129.982 28.8696 131.154 28.8696C132.325 28.8696 133.292 28.4908 134.054 27.7334C134.835 26.9566 135.226 25.966 135.226 24.7618C135.226 23.5576 134.835 22.5768 134.054 21.8193C133.292 21.0425 132.325 20.654 131.154 20.654C129.982 20.654 129.015 21.0425 128.253 21.8193C127.491 22.5768 127.111 23.5576 127.111 24.7618C127.111 25.966 127.491 26.9566 128.253 27.7334Z" fill="black"/>
<path d="M150.811 21.091H147.5V27.1508C147.5 27.6559 147.628 28.0248 147.881 28.2578C148.135 28.4909 148.506 28.6269 148.995 28.6657C149.483 28.6852 150.088 28.6755 150.811 28.6366V32.0452C148.213 32.3365 146.377 32.0938 145.303 31.3168C144.249 30.5401 143.721 29.1513 143.721 27.1508V21.091H141.172V17.4785H143.721V14.5361L147.5 13.3999V17.4785H150.811V21.091Z" fill="black"/>
<path d="M156.212 26.3058C156.719 28.1316 158.096 29.0444 160.343 29.0444C161.788 29.0444 162.881 28.5589 163.624 27.5877L166.671 29.3357C165.225 31.414 163.097 32.453 160.284 32.453C157.862 32.453 155.919 31.7246 154.454 30.268C152.989 28.8113 152.256 26.9759 152.256 24.7618C152.256 22.5671 152.979 20.7414 154.425 19.2847C155.87 17.8087 157.725 17.0706 159.991 17.0706C162.139 17.0706 163.906 17.8087 165.294 19.2847C166.7 20.7608 167.403 22.5866 167.403 24.7618C167.403 25.2474 167.354 25.7621 167.257 26.3058H156.212ZM156.153 23.3925H163.624C163.408 22.402 162.96 21.664 162.276 21.1784C161.612 20.6929 160.85 20.45 159.991 20.45C158.975 20.45 158.135 20.7122 157.472 21.2366C156.807 21.7417 156.368 22.4602 156.153 23.3925Z" fill="black"/>
<path d="M181.584 28.1995H189.407V32.0451H177.542V11.6519H181.584V28.1995Z" fill="black"/>
<path d="M202.374 17.4784H206.154V32.0451H202.374V30.3262C201.241 31.7441 199.65 32.453 197.599 32.453C195.645 32.453 193.966 31.715 192.56 30.2388C191.172 28.7434 190.48 26.9176 190.48 24.7618C190.48 22.6059 191.172 20.79 192.56 19.3138C193.966 17.8184 195.645 17.0706 197.599 17.0706C199.65 17.0706 201.241 17.7796 202.374 19.1973V17.4784ZM195.402 27.7334C196.164 28.4908 197.13 28.8696 198.302 28.8696C199.474 28.8696 200.441 28.4908 201.203 27.7334C201.983 26.9566 202.374 25.966 202.374 24.7618C202.374 23.5576 201.983 22.5768 201.203 21.8193C200.441 21.0425 199.474 20.654 198.302 20.654C197.13 20.654 196.164 21.0425 195.402 21.8193C194.64 22.5768 194.259 23.5576 194.259 24.7618C194.259 25.966 194.64 26.9566 195.402 27.7334Z" fill="black"/>
<path d="M218.105 17.0706C220.079 17.0706 221.758 17.8184 223.144 19.3139C224.55 20.79 225.254 22.6059 225.254 24.7618C225.254 26.9177 224.55 28.7434 223.144 30.2389C221.758 31.715 220.079 32.453 218.105 32.453C216.054 32.453 214.472 31.7441 213.359 30.3263V32.0451H209.58V11.6519H213.359V19.1973C214.472 17.7796 216.054 17.0706 218.105 17.0706ZM214.502 27.7334C215.263 28.4909 216.23 28.8696 217.402 28.8696C218.574 28.8696 219.541 28.4909 220.302 27.7334C221.084 26.9566 221.474 25.9661 221.474 24.7618C221.474 23.5577 221.084 22.5768 220.302 21.8193C219.541 21.0425 218.574 20.654 217.402 20.654C216.23 20.654 215.263 21.0425 214.502 21.8193C213.74 22.5768 213.359 23.5577 213.359 24.7618C213.359 25.9661 213.74 26.9566 214.502 27.7334Z" fill="black"/>
<path d="M231.091 21.6154C231.091 22.0039 231.344 22.3244 231.853 22.5768C232.38 22.8098 233.014 23.0236 233.757 23.2177C234.499 23.3925 235.241 23.6256 235.984 23.9169C236.726 24.1889 237.35 24.655 237.859 25.3153C238.386 25.9757 238.65 26.8011 238.65 27.7916C238.65 29.2872 238.082 30.4428 236.951 31.2585C235.837 32.0549 234.44 32.453 232.761 32.453C229.753 32.453 227.702 31.2974 226.609 28.9861L229.89 27.1507C230.319 28.4132 231.276 29.0444 232.761 29.0444C234.109 29.0444 234.783 28.6268 234.783 27.7916C234.783 27.4032 234.519 27.0924 233.992 26.8594C233.483 26.607 232.858 26.3836 232.117 26.1893C231.373 25.9952 230.632 25.7523 229.89 25.461C229.147 25.1696 228.513 24.7133 227.986 24.0917C227.477 23.4508 227.224 22.6545 227.224 21.7028C227.224 20.2656 227.751 19.139 228.806 18.3233C229.879 17.4882 231.208 17.0706 232.791 17.0706C233.981 17.0706 235.065 17.3426 236.042 17.8863C237.018 18.4107 237.789 19.1682 238.357 20.1587L235.134 21.9067C234.665 20.9162 233.884 20.4209 232.791 20.4209C232.302 20.4209 231.892 20.5278 231.56 20.7414C231.247 20.9551 231.091 21.2464 231.091 21.6154Z" fill="black"/>
</svg>
